%TF.GenerationSoftware,KiCad,Pcbnew,8.0.6*%
%TF.CreationDate,2024-12-17T14:45:50+01:00*%
%TF.ProjectId,Kicad,4b696361-642e-46b6-9963-61645f706362,rev?*%
%TF.SameCoordinates,Original*%
%TF.FileFunction,Copper,L2,Bot*%
%TF.FilePolarity,Positive*%
%FSLAX46Y46*%
G04 Gerber Fmt 4.6, Leading zero omitted, Abs format (unit mm)*
G04 Created by KiCad (PCBNEW 8.0.6) date 2024-12-17 14:45:50*
%MOMM*%
%LPD*%
G01*
G04 APERTURE LIST*
%TA.AperFunction,ComponentPad*%
%ADD10R,1.700000X1.700000*%
%TD*%
%TA.AperFunction,ComponentPad*%
%ADD11O,1.700000X1.700000*%
%TD*%
%TA.AperFunction,ComponentPad*%
%ADD12R,2.600000X2.600000*%
%TD*%
%TA.AperFunction,ComponentPad*%
%ADD13C,2.600000*%
%TD*%
%TA.AperFunction,ComponentPad*%
%ADD14R,1.600000X2.400000*%
%TD*%
%TA.AperFunction,ComponentPad*%
%ADD15O,1.600000X2.400000*%
%TD*%
%TA.AperFunction,ComponentPad*%
%ADD16C,1.600000*%
%TD*%
%TA.AperFunction,ComponentPad*%
%ADD17O,1.600000X1.600000*%
%TD*%
%TA.AperFunction,Conductor*%
%ADD18C,2.000000*%
%TD*%
%TA.AperFunction,Conductor*%
%ADD19C,1.000000*%
%TD*%
%TA.AperFunction,Conductor*%
%ADD20C,1.500000*%
%TD*%
G04 APERTURE END LIST*
D10*
%TO.P,J1,1,Pin_1*%
%TO.N,unconnected-(J1-Pin_1-Pad1)*%
X127940000Y-97460000D03*
D11*
%TO.P,J1,2,Pin_2*%
%TO.N,/IOREF*%
X130480000Y-97460000D03*
%TO.P,J1,3,Pin_3*%
%TO.N,/~{RESET}*%
X133020000Y-97460000D03*
%TO.P,J1,4,Pin_4*%
%TO.N,+3V3*%
X135560000Y-97460000D03*
%TO.P,J1,5,Pin_5*%
%TO.N,+5V*%
X138100000Y-97460000D03*
%TO.P,J1,6,Pin_6*%
%TO.N,GND*%
X140640000Y-97460000D03*
%TO.P,J1,7,Pin_7*%
X143180000Y-97460000D03*
%TO.P,J1,8,Pin_8*%
%TO.N,VCC*%
X145720000Y-97460000D03*
%TD*%
D10*
%TO.P,J3,1,Pin_1*%
%TO.N,/A0*%
X150800000Y-97460000D03*
D11*
%TO.P,J3,2,Pin_2*%
%TO.N,/A1*%
X153340000Y-97460000D03*
%TO.P,J3,3,Pin_3*%
%TO.N,/A2*%
X155880000Y-97460000D03*
%TO.P,J3,4,Pin_4*%
%TO.N,/A3*%
X158420000Y-97460000D03*
%TO.P,J3,5,Pin_5*%
%TO.N,/SDA{slash}A4*%
X160960000Y-97460000D03*
%TO.P,J3,6,Pin_6*%
%TO.N,/SCL{slash}A5*%
X163500000Y-97460000D03*
%TD*%
D10*
%TO.P,J2,1,Pin_1*%
%TO.N,/SCL{slash}A5*%
X118796000Y-49200000D03*
D11*
%TO.P,J2,2,Pin_2*%
%TO.N,/SDA{slash}A4*%
X121336000Y-49200000D03*
%TO.P,J2,3,Pin_3*%
%TO.N,/AREF*%
X123876000Y-49200000D03*
%TO.P,J2,4,Pin_4*%
%TO.N,GND*%
X126416000Y-49200000D03*
%TO.P,J2,5,Pin_5*%
%TO.N,/13*%
X128956000Y-49200000D03*
%TO.P,J2,6,Pin_6*%
%TO.N,/12*%
X131496000Y-49200000D03*
%TO.P,J2,7,Pin_7*%
%TO.N,/\u002A11*%
X134036000Y-49200000D03*
%TO.P,J2,8,Pin_8*%
%TO.N,/\u002A10*%
X136576000Y-49200000D03*
%TO.P,J2,9,Pin_9*%
%TO.N,/\u002A9*%
X139116000Y-49200000D03*
%TO.P,J2,10,Pin_10*%
%TO.N,/8*%
X141656000Y-49200000D03*
%TD*%
D10*
%TO.P,J4,1,Pin_1*%
%TO.N,/7*%
X145720000Y-49200000D03*
D11*
%TO.P,J4,2,Pin_2*%
%TO.N,/\u002A6*%
X148260000Y-49200000D03*
%TO.P,J4,3,Pin_3*%
%TO.N,/\u002A5*%
X150800000Y-49200000D03*
%TO.P,J4,4,Pin_4*%
%TO.N,/4*%
X153340000Y-49200000D03*
%TO.P,J4,5,Pin_5*%
%TO.N,/\u002A3*%
X155880000Y-49200000D03*
%TO.P,J4,6,Pin_6*%
%TO.N,/2*%
X158420000Y-49200000D03*
%TO.P,J4,7,Pin_7*%
%TO.N,/TX{slash}1*%
X160960000Y-49200000D03*
%TO.P,J4,8,Pin_8*%
%TO.N,/RX{slash}0*%
X163500000Y-49200000D03*
%TD*%
D12*
%TO.P,J5,1,Pin_1*%
%TO.N,Net-(J11-Pin_3)*%
X104700000Y-81120000D03*
D13*
%TO.P,J5,2,Pin_2*%
%TO.N,GND*%
X104700000Y-86200000D03*
%TD*%
D14*
%TO.P,U1,1,S1*%
%TO.N,/A0*%
X140300000Y-63400000D03*
D15*
%TO.P,U1,2,-*%
%TO.N,Net-(J7-Pin_1)*%
X137760000Y-63400000D03*
%TO.P,U1,3,+*%
%TO.N,Net-(J6-Pin_2)*%
X135220000Y-63400000D03*
%TO.P,U1,4,V-*%
%TO.N,GND*%
X132680000Y-63400000D03*
%TO.P,U1,5,+*%
%TO.N,Net-(J8-Pin_2)*%
X132680000Y-71020000D03*
%TO.P,U1,6,-*%
%TO.N,Net-(U1-S2)*%
X135220000Y-71020000D03*
%TO.P,U1,7,S2*%
X137760000Y-71020000D03*
%TO.P,U1,8,V+*%
%TO.N,+5V*%
X140300000Y-71020000D03*
%TD*%
D16*
%TO.P,R4,1*%
%TO.N,GND*%
X146100000Y-77400000D03*
D17*
%TO.P,R4,2*%
%TO.N,Net-(J7-Pin_1)*%
X146100000Y-67240000D03*
%TD*%
D12*
%TO.P,J6,1,Pin_1*%
%TO.N,GND*%
X104900000Y-58600000D03*
D13*
%TO.P,J6,2,Pin_2*%
%TO.N,Net-(J6-Pin_2)*%
X104900000Y-53600000D03*
%TD*%
D16*
%TO.P,R1,1*%
%TO.N,Net-(J6-Pin_2)*%
X125300000Y-64920000D03*
D17*
%TO.P,R1,2*%
%TO.N,Net-(U1-S2)*%
X125300000Y-75080000D03*
%TD*%
D12*
%TO.P,J8,1,Pin_1*%
%TO.N,GND*%
X104900000Y-64800000D03*
D13*
%TO.P,J8,2,Pin_2*%
%TO.N,Net-(J8-Pin_2)*%
X104900000Y-69800000D03*
%TO.P,J8,3,Pin_3*%
%TO.N,+5V*%
X104900000Y-74800000D03*
%TD*%
D12*
%TO.P,J7,1,Pin_1*%
%TO.N,Net-(J7-Pin_1)*%
X161000000Y-70000000D03*
D13*
%TO.P,J7,2,Pin_2*%
%TO.N,/A0*%
X161000000Y-65000000D03*
%TD*%
D12*
%TO.P,J12,1,Pin_1*%
%TO.N,GND*%
X160805000Y-88000000D03*
D13*
%TO.P,J12,2,Pin_2*%
%TO.N,/A2*%
X160805000Y-83000000D03*
%TO.P,J12,3,Pin_3*%
%TO.N,+5V*%
X160805000Y-78000000D03*
%TD*%
D12*
%TO.P,J11,1,Pin_1*%
%TO.N,GND*%
X105340000Y-95000000D03*
D13*
%TO.P,J11,2,Pin_2*%
X110420000Y-95000000D03*
%TO.P,J11,3,Pin_3*%
%TO.N,Net-(J11-Pin_3)*%
X115500000Y-95000000D03*
%TO.P,J11,4,Pin_4*%
X120580000Y-95000000D03*
%TD*%
D16*
%TO.P,R2,1*%
%TO.N,/A0*%
X150100000Y-59540000D03*
D17*
%TO.P,R2,2*%
%TO.N,Net-(J7-Pin_1)*%
X150100000Y-69700000D03*
%TD*%
D16*
%TO.P,R3,1*%
%TO.N,GND*%
X120200000Y-75100000D03*
D17*
%TO.P,R3,2*%
%TO.N,Net-(J6-Pin_2)*%
X120200000Y-64940000D03*
%TD*%
D18*
%TO.N,+5V*%
X104900000Y-74800000D02*
X98100000Y-74800000D01*
X140300000Y-71020000D02*
X140300000Y-90100000D01*
X167900000Y-78200000D02*
X168000000Y-78100000D01*
X168000000Y-62300000D02*
X159600000Y-53900000D01*
D19*
X124300000Y-97900000D02*
X124300000Y-91400000D01*
X97900000Y-85900000D02*
X97900000Y-97900000D01*
D18*
X98200000Y-49000000D02*
X97900000Y-49300000D01*
X140300000Y-90100000D02*
X139400000Y-91000000D01*
X138100000Y-97460000D02*
X138100000Y-91100000D01*
X97900000Y-74600000D02*
X97900000Y-85900000D01*
X138200000Y-91000000D02*
X124700000Y-91000000D01*
D19*
X98700000Y-98700000D02*
X123500000Y-98700000D01*
D18*
X97900000Y-49300000D02*
X97900000Y-74600000D01*
X109100000Y-49000000D02*
X98200000Y-49000000D01*
X168000000Y-78100000D02*
X168000000Y-62300000D01*
X138100000Y-91100000D02*
X138200000Y-91000000D01*
D19*
X124300000Y-91400000D02*
X124700000Y-91000000D01*
D18*
X114000000Y-53900000D02*
X109100000Y-49000000D01*
D19*
X97900000Y-97900000D02*
X98700000Y-98700000D01*
X123500000Y-98700000D02*
X124300000Y-97900000D01*
D18*
X160805000Y-78000000D02*
X161005000Y-78200000D01*
X161005000Y-78200000D02*
X167900000Y-78200000D01*
X159600000Y-53900000D02*
X114000000Y-53900000D01*
X139400000Y-91000000D02*
X138200000Y-91000000D01*
X98100000Y-74800000D02*
X97900000Y-74600000D01*
D20*
%TO.N,/A0*%
X151700000Y-75200000D02*
X151800000Y-75200000D01*
D19*
X151800000Y-75200000D02*
X153000000Y-74000000D01*
D18*
X150800000Y-97460000D02*
X150800000Y-76200000D01*
X155540000Y-59540000D02*
X161000000Y-65000000D01*
D19*
X164500000Y-65000000D02*
X161000000Y-65000000D01*
D18*
X150100000Y-59540000D02*
X155540000Y-59540000D01*
X140300000Y-63400000D02*
X146240000Y-63400000D01*
D19*
X153000000Y-74000000D02*
X164500000Y-74000000D01*
D18*
X146240000Y-63400000D02*
X150100000Y-59540000D01*
X150800000Y-76200000D02*
X151800000Y-75200000D01*
D19*
X164500000Y-74000000D02*
X164500000Y-65000000D01*
D18*
%TO.N,/A2*%
X160805000Y-83000000D02*
X155980000Y-83000000D01*
X155880000Y-97460000D02*
X155880000Y-83100000D01*
X155980000Y-83000000D02*
X155880000Y-83100000D01*
%TO.N,Net-(J11-Pin_3)*%
X115500000Y-95000000D02*
X120580000Y-95000000D01*
X115500000Y-91920000D02*
X115500000Y-95000000D01*
X104700000Y-81120000D02*
X115500000Y-91920000D01*
D19*
%TO.N,Net-(J7-Pin_1)*%
X137760000Y-63400000D02*
X137760000Y-66760000D01*
X138240000Y-67240000D02*
X146100000Y-67240000D01*
X137760000Y-66760000D02*
X138240000Y-67240000D01*
D18*
X150100000Y-69700000D02*
X148560000Y-69700000D01*
X160700000Y-69700000D02*
X161000000Y-70000000D01*
X150100000Y-69700000D02*
X160700000Y-69700000D01*
X148560000Y-69700000D02*
X146100000Y-67240000D01*
D20*
%TO.N,Net-(J6-Pin_2)*%
X120200000Y-64940000D02*
X111780000Y-56520000D01*
X125300000Y-64920000D02*
X120220000Y-64920000D01*
X107100000Y-53600000D02*
X104900000Y-53600000D01*
X135100000Y-59100000D02*
X135220000Y-59220000D01*
X120220000Y-64920000D02*
X120200000Y-64940000D01*
X125300000Y-59200000D02*
X125300000Y-64920000D01*
X110000000Y-56500000D02*
X107100000Y-53600000D01*
X111780000Y-56500000D02*
X110000000Y-56500000D01*
X125400000Y-59100000D02*
X135100000Y-59100000D01*
X125400000Y-59100000D02*
X125300000Y-59200000D01*
X135220000Y-59220000D02*
X135220000Y-63400000D01*
X111780000Y-56520000D02*
X111780000Y-56500000D01*
D19*
%TO.N,Net-(U1-S2)*%
X133366548Y-67300000D02*
X130700000Y-67300000D01*
X128000000Y-70000000D02*
X125300000Y-70000000D01*
D18*
X137760000Y-71020000D02*
X135220000Y-71020000D01*
D19*
X135220000Y-69153452D02*
X135220000Y-71020000D01*
X125300000Y-70000000D02*
X125300000Y-75080000D01*
X133366548Y-67300000D02*
X135220000Y-69153452D01*
X130700000Y-67300000D02*
X128000000Y-70000000D01*
D18*
%TO.N,Net-(J8-Pin_2)*%
X112700000Y-70000000D02*
X112700000Y-78000000D01*
X112700000Y-70000000D02*
X112500000Y-69800000D01*
X132680000Y-78680000D02*
X132680000Y-71020000D01*
X112700000Y-78000000D02*
X113400000Y-78700000D01*
X113400000Y-78700000D02*
X132700000Y-78700000D01*
X132700000Y-78700000D02*
X132680000Y-78680000D01*
X112500000Y-69800000D02*
X104900000Y-69800000D01*
%TD*%
%TA.AperFunction,Conductor*%
%TO.N,GND*%
G36*
X142714075Y-97267007D02*
G01*
X142680000Y-97394174D01*
X142680000Y-97525826D01*
X142714075Y-97652993D01*
X142746988Y-97710000D01*
X141073012Y-97710000D01*
X141105925Y-97652993D01*
X141140000Y-97525826D01*
X141140000Y-97394174D01*
X141105925Y-97267007D01*
X141073012Y-97210000D01*
X142746988Y-97210000D01*
X142714075Y-97267007D01*
G37*
%TD.AperFunction*%
%TA.AperFunction,Conductor*%
G36*
X163484395Y-46755191D02*
G01*
X163505080Y-46771853D01*
X165927638Y-49194412D01*
X165961123Y-49255735D01*
X165963954Y-49282906D01*
X165924572Y-55288633D01*
X165923751Y-55302091D01*
X165923272Y-55306223D01*
X165923610Y-55310402D01*
X165924402Y-55314519D01*
X165924403Y-55314521D01*
X165924403Y-55314523D01*
X165925964Y-55318361D01*
X165930360Y-55331126D01*
X165931493Y-55335109D01*
X165933405Y-55338839D01*
X165935714Y-55342345D01*
X165938629Y-55345298D01*
X165947570Y-55355403D01*
X170992209Y-61723390D01*
X170997697Y-61730317D01*
X171023896Y-61795089D01*
X171024500Y-61807315D01*
X171024500Y-95904313D01*
X171004815Y-95971352D01*
X170970606Y-96006593D01*
X165286213Y-99902835D01*
X165219787Y-99924500D01*
X165216219Y-99924555D01*
X96356152Y-99986494D01*
X96343886Y-99985897D01*
X96228222Y-99974505D01*
X96204381Y-99969763D01*
X96187445Y-99964625D01*
X96098968Y-99937786D01*
X96076517Y-99928486D01*
X95979372Y-99876561D01*
X95959160Y-99863056D01*
X95874011Y-99793176D01*
X95856823Y-99775988D01*
X95786943Y-99690839D01*
X95773438Y-99670627D01*
X95772966Y-99669744D01*
X95721510Y-99573476D01*
X95712215Y-99551037D01*
X95680234Y-99445612D01*
X95675494Y-99421778D01*
X95670681Y-99372914D01*
X95676218Y-99335616D01*
X95673117Y-99334999D01*
X95675500Y-99323019D01*
X95675500Y-49181278D01*
X96391499Y-49181278D01*
X96391499Y-49423832D01*
X96391500Y-49423857D01*
X96391500Y-74476862D01*
X96391499Y-74476877D01*
X96391499Y-74723832D01*
X96391500Y-74723857D01*
X96391500Y-86018727D01*
X96428643Y-86253241D01*
X96502019Y-86479067D01*
X96590221Y-86652172D01*
X96609815Y-86690627D01*
X96749380Y-86882722D01*
X96749382Y-86882724D01*
X96855181Y-86988523D01*
X96888666Y-87049846D01*
X96891500Y-87076204D01*
X96891500Y-97999333D01*
X96930254Y-98194160D01*
X96930256Y-98194168D01*
X97006277Y-98377701D01*
X97006282Y-98377710D01*
X97116646Y-98542880D01*
X97116649Y-98542884D01*
X98057115Y-99483351D01*
X98057119Y-99483354D01*
X98222289Y-99593718D01*
X98222291Y-99593719D01*
X98222296Y-99593722D01*
X98352075Y-99647477D01*
X98405831Y-99669744D01*
X98600666Y-99708499D01*
X98600670Y-99708500D01*
X98600671Y-99708500D01*
X123599330Y-99708500D01*
X123599331Y-99708499D01*
X123794169Y-99669744D01*
X123977704Y-99593721D01*
X124142881Y-99483353D01*
X124283353Y-99342881D01*
X124341912Y-99284322D01*
X124341923Y-99284309D01*
X125083354Y-98542881D01*
X125193722Y-98377704D01*
X125269744Y-98194168D01*
X125277864Y-98153350D01*
X125308499Y-97999333D01*
X125308500Y-97999331D01*
X125308500Y-92632500D01*
X125328185Y-92565461D01*
X125380989Y-92519706D01*
X125432500Y-92508500D01*
X136467500Y-92508500D01*
X136534539Y-92528185D01*
X136580294Y-92580989D01*
X136591500Y-92632500D01*
X136591500Y-96287709D01*
X136571815Y-96354748D01*
X136519011Y-96400503D01*
X136449853Y-96410447D01*
X136391337Y-96385562D01*
X136305577Y-96318812D01*
X136305572Y-96318808D01*
X136107580Y-96211661D01*
X136107577Y-96211659D01*
X136107574Y-96211658D01*
X136107571Y-96211657D01*
X136107569Y-96211656D01*
X135894637Y-96138556D01*
X135672569Y-96101500D01*
X135447431Y-96101500D01*
X135225362Y-96138556D01*
X135012430Y-96211656D01*
X135012419Y-96211661D01*
X134814427Y-96318808D01*
X134814422Y-96318812D01*
X134636761Y-96457092D01*
X134636756Y-96457097D01*
X134484284Y-96622723D01*
X134484276Y-96622734D01*
X134393808Y-96761206D01*
X134340662Y-96806562D01*
X134271431Y-96815986D01*
X134208095Y-96786484D01*
X134186192Y-96761206D01*
X134128286Y-96672576D01*
X134095722Y-96622732D01*
X134095719Y-96622729D01*
X134095715Y-96622723D01*
X133943243Y-96457097D01*
X133943238Y-96457092D01*
X133765577Y-96318812D01*
X133765572Y-96318808D01*
X133567580Y-96211661D01*
X133567577Y-96211659D01*
X133567574Y-96211658D01*
X133567571Y-96211657D01*
X133567569Y-96211656D01*
X133354637Y-96138556D01*
X133132569Y-96101500D01*
X132907431Y-96101500D01*
X132685362Y-96138556D01*
X132472430Y-96211656D01*
X132472419Y-96211661D01*
X132274427Y-96318808D01*
X132274422Y-96318812D01*
X132096761Y-96457092D01*
X132096756Y-96457097D01*
X131944284Y-96622723D01*
X131944276Y-96622734D01*
X131853808Y-96761206D01*
X131800662Y-96806562D01*
X131731431Y-96815986D01*
X131668095Y-96786484D01*
X131646192Y-96761206D01*
X131588286Y-96672576D01*
X131555722Y-96622732D01*
X131555719Y-96622729D01*
X131555715Y-96622723D01*
X131403243Y-96457097D01*
X131403238Y-96457092D01*
X131225577Y-96318812D01*
X131225572Y-96318808D01*
X131027580Y-96211661D01*
X131027577Y-96211659D01*
X131027574Y-96211658D01*
X131027571Y-96211657D01*
X131027569Y-96211656D01*
X130814637Y-96138556D01*
X130592569Y-96101500D01*
X130367431Y-96101500D01*
X130145362Y-96138556D01*
X129932430Y-96211656D01*
X129932419Y-96211661D01*
X129734427Y-96318808D01*
X129734422Y-96318812D01*
X129556761Y-96457092D01*
X129493548Y-96525760D01*
X129433661Y-96561750D01*
X129363823Y-96559649D01*
X129306207Y-96520124D01*
X129286138Y-96485110D01*
X129240889Y-96363796D01*
X129207214Y-96318812D01*
X129153261Y-96246739D01*
X129036204Y-96159111D01*
X128899203Y-96108011D01*
X128838654Y-96101500D01*
X128838638Y-96101500D01*
X127041362Y-96101500D01*
X127041345Y-96101500D01*
X126980797Y-96108011D01*
X126980795Y-96108011D01*
X126843795Y-96159111D01*
X126726739Y-96246739D01*
X126639111Y-96363795D01*
X126588011Y-96500795D01*
X126588011Y-96500797D01*
X126581500Y-96561345D01*
X126581500Y-98358654D01*
X126588011Y-98419202D01*
X126588011Y-98419204D01*
X126634141Y-98542880D01*
X126639111Y-98556204D01*
X126726739Y-98673261D01*
X126843796Y-98760889D01*
X126980799Y-98811989D01*
X127008050Y-98814918D01*
X127041345Y-98818499D01*
X127041362Y-98818500D01*
X128838638Y-98818500D01*
X128838654Y-98818499D01*
X128865692Y-98815591D01*
X128899201Y-98811989D01*
X129036204Y-98760889D01*
X129153261Y-98673261D01*
X129240889Y-98556204D01*
X129286138Y-98434887D01*
X129328009Y-98378956D01*
X129393474Y-98354539D01*
X129461746Y-98369391D01*
X129493545Y-98394236D01*
X129556760Y-98462906D01*
X129734424Y-98601189D01*
X129734425Y-98601189D01*
X129734427Y-98601191D01*
X129794314Y-98633600D01*
X129932426Y-98708342D01*
X130145365Y-98781444D01*
X130367431Y-98818500D01*
X130592569Y-98818500D01*
X130814635Y-98781444D01*
X131027574Y-98708342D01*
X131225576Y-98601189D01*
X131403240Y-98462906D01*
X131555722Y-98297268D01*
X131646193Y-98158790D01*
X131699338Y-98113437D01*
X131768569Y-98104013D01*
X131831905Y-98133515D01*
X131853804Y-98158787D01*
X131944278Y-98297268D01*
X131944283Y-98297273D01*
X131944284Y-98297276D01*
X132070968Y-98434889D01*
X132096760Y-98462906D01*
X132274424Y-98601189D01*
X132274425Y-98601189D01*
X132274427Y-98601191D01*
X132334314Y-98633600D01*
X132472426Y-98708342D01*
X132685365Y-98781444D01*
X132907431Y-98818500D01*
X133132569Y-98818500D01*
X133354635Y-98781444D01*
X133567574Y-98708342D01*
X133765576Y-98601189D01*
X133943240Y-98462906D01*
X134095722Y-98297268D01*
X134186193Y-98158790D01*
X134239338Y-98113437D01*
X134308569Y-98104013D01*
X134371905Y-98133515D01*
X134393804Y-98158787D01*
X134484278Y-98297268D01*
X134484283Y-98297273D01*
X134484284Y-98297276D01*
X134610968Y-98434889D01*
X134636760Y-98462906D01*
X134814424Y-98601189D01*
X134814425Y-98601189D01*
X134814427Y-98601191D01*
X134874314Y-98633600D01*
X135012426Y-98708342D01*
X135225365Y-98781444D01*
X135447431Y-98818500D01*
X135672569Y-98818500D01*
X135894635Y-98781444D01*
X136107574Y-98708342D01*
X136305576Y-98601189D01*
X136483240Y-98462906D01*
X136635722Y-98297268D01*
X136635797Y-98297152D01*
X136635841Y-98297114D01*
X136638875Y-98293218D01*
X136639676Y-98293841D01*
X136688938Y-98251791D01*
X136758168Y-98242359D01*
X136821507Y-98271854D01*
X136839930Y-98292077D01*
X136949380Y-98442722D01*
X137117278Y-98610620D01*
X137309373Y-98750185D01*
X137388757Y-98790633D01*
X137520932Y-98857980D01*
X137520934Y-98857980D01*
X137520937Y-98857982D01*
X137641984Y-98897312D01*
X137746758Y-98931356D01*
X137981273Y-98968500D01*
X137981278Y-98968500D01*
X138218727Y-98968500D01*
X138453241Y-98931356D01*
X138679063Y-98857982D01*
X138890627Y-98750185D01*
X139082722Y-98610620D01*
X139250620Y-98442722D01*
X139360069Y-98292078D01*
X139367124Y-98282368D01*
X139422454Y-98239702D01*
X139492067Y-98233723D01*
X139553862Y-98266329D01*
X139569017Y-98284129D01*
X139601894Y-98331082D01*
X139768917Y-98498105D01*
X139962421Y-98633600D01*
X140176507Y-98733429D01*
X140176516Y-98733433D01*
X140390000Y-98790634D01*
X140390000Y-97893012D01*
X140447007Y-97925925D01*
X140574174Y-97960000D01*
X140705826Y-97960000D01*
X140832993Y-97925925D01*
X140890000Y-97893012D01*
X140890000Y-98790633D01*
X141103483Y-98733433D01*
X141103492Y-98733429D01*
X141317578Y-98633600D01*
X141511082Y-98498105D01*
X141678105Y-98331082D01*
X141808425Y-98144968D01*
X141863002Y-98101344D01*
X141932501Y-98094151D01*
X141994855Y-98125673D01*
X142011575Y-98144968D01*
X142141894Y-98331082D01*
X142308917Y-98498105D01*
X142502421Y-98633600D01*
X142716507Y-98733429D01*
X142716516Y-98733433D01*
X142930000Y-98790634D01*
X142930000Y-97893012D01*
X142987007Y-97925925D01*
X143114174Y-97960000D01*
X143245826Y-97960000D01*
X143372993Y-97925925D01*
X143430000Y-97893012D01*
X143430000Y-98790634D01*
X143643483Y-98733433D01*
X143643492Y-98733429D01*
X143857578Y-98633600D01*
X144051082Y-98498105D01*
X144218105Y-98331082D01*
X144344868Y-98150048D01*
X144399445Y-98106423D01*
X144468944Y-98099231D01*
X144531298Y-98130753D01*
X144550251Y-98153350D01*
X144644276Y-98297265D01*
X144644284Y-98297276D01*
X144770968Y-98434889D01*
X144796760Y-98462906D01*
X144974424Y-98601189D01*
X144974425Y-98601189D01*
X144974427Y-98601191D01*
X145034314Y-98633600D01*
X145172426Y-98708342D01*
X145385365Y-98781444D01*
X145607431Y-98818500D01*
X145832569Y-98818500D01*
X146054635Y-98781444D01*
X146267574Y-98708342D01*
X146465576Y-98601189D01*
X146643240Y-98462906D01*
X146795722Y-98297268D01*
X146918860Y-98108791D01*
X147009296Y-97902616D01*
X147064564Y-97684368D01*
X147073318Y-97578727D01*
X147083156Y-97460005D01*
X147083156Y-97459994D01*
X147064565Y-97235640D01*
X147064563Y-97235628D01*
X147009296Y-97017385D01*
X146999071Y-96994075D01*
X146918860Y-96811209D01*
X146917089Y-96808499D01*
X146838498Y-96688206D01*
X146795722Y-96622732D01*
X146795719Y-96622729D01*
X146795715Y-96622723D01*
X146643243Y-96457097D01*
X146643238Y-96457092D01*
X146465577Y-96318812D01*
X146465572Y-96318808D01*
X146267580Y-96211661D01*
X146267577Y-96211659D01*
X146267574Y-96211658D01*
X146267571Y-96211657D01*
X146267569Y-96211656D01*
X146054637Y-96138556D01*
X145832569Y-96101500D01*
X145607431Y-96101500D01*
X145385362Y-96138556D01*
X145172430Y-96211656D01*
X145172419Y-96211661D01*
X144974427Y-96318808D01*
X144974422Y-96318812D01*
X144796761Y-96457092D01*
X144796756Y-96457097D01*
X144644284Y-96622723D01*
X144644276Y-96622734D01*
X144550251Y-96766650D01*
X144497105Y-96812007D01*
X144427873Y-96821430D01*
X144364538Y-96791928D01*
X144344868Y-96769951D01*
X144218113Y-96588926D01*
X144218108Y-96588920D01*
X144051082Y-96421894D01*
X143857578Y-96286399D01*
X143643492Y-96186570D01*
X143643486Y-96186567D01*
X143430000Y-96129364D01*
X143430000Y-97026988D01*
X143372993Y-96994075D01*
X143245826Y-96960000D01*
X143114174Y-96960000D01*
X142987007Y-96994075D01*
X142930000Y-97026988D01*
X142930000Y-96129364D01*
X142929999Y-96129364D01*
X142716513Y-96186567D01*
X142716507Y-96186570D01*
X142502422Y-96286399D01*
X142502420Y-96286400D01*
X142308926Y-96421886D01*
X142308920Y-96421891D01*
X142141891Y-96588920D01*
X142141890Y-96588922D01*
X142011575Y-96775031D01*
X141956998Y-96818655D01*
X141887499Y-96825848D01*
X141825145Y-96794326D01*
X141808425Y-96775031D01*
X141678109Y-96588922D01*
X141678108Y-96588920D01*
X141511082Y-96421894D01*
X141317578Y-96286399D01*
X141103492Y-96186570D01*
X141103486Y-96186567D01*
X140890000Y-96129364D01*
X140890000Y-97026988D01*
X140832993Y-96994075D01*
X140705826Y-96960000D01*
X140574174Y-96960000D01*
X140447007Y-96994075D01*
X140390000Y-97026988D01*
X140390000Y-96129364D01*
X140389999Y-96129364D01*
X140176513Y-96186567D01*
X140176507Y-96186570D01*
X139962422Y-96286399D01*
X139962420Y-96286400D01*
X139803623Y-96397591D01*
X139737417Y-96419918D01*
X139669650Y-96402908D01*
X139621837Y-96351959D01*
X139608500Y-96296016D01*
X139608500Y-92600186D01*
X139628185Y-92533147D01*
X139680989Y-92487392D01*
X139713095Y-92477714D01*
X139753241Y-92471356D01*
X139979063Y-92397982D01*
X140190627Y-92290185D01*
X140213948Y-92273241D01*
X140382722Y-92150620D01*
X140550620Y-91982722D01*
X140550621Y-91982720D01*
X140557681Y-91975660D01*
X140557686Y-91975653D01*
X141450620Y-91082722D01*
X141590185Y-90890627D01*
X141697982Y-90679063D01*
X141771356Y-90453241D01*
X141808500Y-90218727D01*
X141808500Y-77399997D01*
X144795034Y-77399997D01*
X144795034Y-77400002D01*
X144814858Y-77626599D01*
X144814860Y-77626610D01*
X144873730Y-77846317D01*
X144873735Y-77846331D01*
X144969863Y-78052478D01*
X145020974Y-78125472D01*
X145700000Y-77446446D01*
X145700000Y-77452661D01*
X145727259Y-77554394D01*
X145779920Y-77645606D01*
X145854394Y-77720080D01*
X145945606Y-77772741D01*
X146047339Y-77800000D01*
X146053553Y-77800000D01*
X145374526Y-78479025D01*
X145447513Y-78530132D01*
X145447521Y-78530136D01*
X145653668Y-78626264D01*
X145653682Y-78626269D01*
X145873389Y-78685139D01*
X145873400Y-78685141D01*
X146099998Y-78704966D01*
X146100002Y-78704966D01*
X146326599Y-78685141D01*
X146326610Y-78685139D01*
X146546317Y-78626269D01*
X146546331Y-78626264D01*
X146752478Y-78530136D01*
X146825471Y-78479024D01*
X146146447Y-77800000D01*
X146152661Y-77800000D01*
X146254394Y-77772741D01*
X146345606Y-77720080D01*
X146420080Y-77645606D01*
X146472741Y-77554394D01*
X146500000Y-77452661D01*
X146500000Y-77446447D01*
X147179024Y-78125471D01*
X147230136Y-78052478D01*
X147326264Y-77846331D01*
X147326269Y-77846317D01*
X147385139Y-77626610D01*
X147385141Y-77626599D01*
X147404966Y-77400002D01*
X147404966Y-77399997D01*
X147385141Y-77173400D01*
X147385139Y-77173389D01*
X147326269Y-76953682D01*
X147326264Y-76953668D01*
X147230136Y-76747521D01*
X147230132Y-76747513D01*
X147179025Y-76674526D01*
X146500000Y-77353551D01*
X146500000Y-77347339D01*
X146472741Y-77245606D01*
X146420080Y-77154394D01*
X146345606Y-77079920D01*
X146254394Y-77027259D01*
X146152661Y-77000000D01*
X146146448Y-77000000D01*
X146825472Y-76320974D01*
X146752478Y-76269863D01*
X146546331Y-76173735D01*
X146546317Y-76173730D01*
X146326610Y-76114860D01*
X146326599Y-76114858D01*
X146100002Y-76095034D01*
X146099998Y-76095034D01*
X145873400Y-76114858D01*
X145873389Y-76114860D01*
X145653682Y-76173730D01*
X145653673Y-76173734D01*
X145447516Y-76269866D01*
X145447512Y-76269868D01*
X145374526Y-76320973D01*
X145374526Y-76320974D01*
X146053553Y-77000000D01*
X146047339Y-77000000D01*
X145945606Y-77027259D01*
X145854394Y-77079920D01*
X145779920Y-77154394D01*
X145727259Y-77245606D01*
X145700000Y-77347339D01*
X145700000Y-77353552D01*
X145020974Y-76674526D01*
X145020973Y-76674526D01*
X144969868Y-76747512D01*
X144969866Y-76747516D01*
X144873734Y-76953673D01*
X144873730Y-76953682D01*
X144814860Y-77173389D01*
X144814858Y-77173400D01*
X144795034Y-77399997D01*
X141808500Y-77399997D01*
X141808500Y-70901272D01*
X141771356Y-70666758D01*
X141697980Y-70440932D01*
X141641114Y-70329328D01*
X141590185Y-70229373D01*
X141526000Y-70141029D01*
X141515257Y-70121842D01*
X141514846Y-70122052D01*
X141493954Y-70081049D01*
X141419129Y-69934197D01*
X141380681Y-69881278D01*
X141298073Y-69767576D01*
X141298069Y-69767571D01*
X141152428Y-69621930D01*
X141152423Y-69621926D01*
X140985806Y-69500873D01*
X140985805Y-69500872D01*
X140985803Y-69500871D01*
X140928496Y-69471671D01*
X140802294Y-69407367D01*
X140606408Y-69343719D01*
X140430794Y-69315905D01*
X140402981Y-69311500D01*
X140197019Y-69311500D01*
X140172550Y-69315375D01*
X139993591Y-69343719D01*
X139797705Y-69407367D01*
X139614193Y-69500873D01*
X139447576Y-69621926D01*
X139447571Y-69621930D01*
X139301930Y-69767571D01*
X139301926Y-69767576D01*
X139180872Y-69934193D01*
X139140483Y-70013460D01*
X139092508Y-70064255D01*
X139024687Y-70081049D01*
X138958552Y-70058511D01*
X138919514Y-70013457D01*
X138879128Y-69934195D01*
X138758073Y-69767576D01*
X138758069Y-69767571D01*
X138612428Y-69621930D01*
X138612423Y-69621926D01*
X138445806Y-69500873D01*
X138445805Y-69500872D01*
X138445803Y-69500871D01*
X138388496Y-69471671D01*
X138262294Y-69407367D01*
X138066408Y-69343719D01*
X137890794Y-69315905D01*
X137862981Y-69311500D01*
X137657019Y-69311500D01*
X137632550Y-69315375D01*
X137453591Y-69343719D01*
X137257705Y-69407367D01*
X137079861Y-69497985D01*
X137023566Y-69511500D01*
X136352500Y-69511500D01*
X136285461Y-69491815D01*
X136239706Y-69439011D01*
X136228500Y-69387500D01*
X136228500Y-69054122D01*
X136228499Y-69054118D01*
X136220344Y-69013120D01*
X136189744Y-68859283D01*
X136113721Y-68675748D01*
X136113720Y-68675747D01*
X136113717Y-68675741D01*
X136003354Y-68510572D01*
X135946577Y-68453795D01*
X135862881Y-68370099D01*
X135484282Y-67991500D01*
X134009432Y-66516649D01*
X134009428Y-66516646D01*
X133844258Y-66406282D01*
X133844249Y-66406277D01*
X133748007Y-66366413D01*
X133660717Y-66330256D01*
X133660709Y-66330254D01*
X133465881Y-66291500D01*
X133465877Y-66291500D01*
X130600671Y-66291500D01*
X130600666Y-66291500D01*
X130405838Y-66330253D01*
X130405838Y-66330254D01*
X130405835Y-66330255D01*
X130405831Y-66330256D01*
X130329809Y-66361745D01*
X130329807Y-66361745D01*
X130222294Y-66406278D01*
X130057123Y-66516642D01*
X130057115Y-66516648D01*
X127618585Y-68955181D01*
X127557262Y-68988666D01*
X127530904Y-68991500D01*
X125200666Y-68991500D01*
X125005838Y-69030254D01*
X125005830Y-69030256D01*
X124822298Y-69106277D01*
X124822289Y-69106282D01*
X124657119Y-69216646D01*
X124657115Y-69216649D01*
X124516649Y-69357115D01*
X124516646Y-69357119D01*
X124406282Y-69522289D01*
X124406277Y-69522298D01*
X124330256Y-69705830D01*
X124330254Y-69705838D01*
X124291500Y-69900666D01*
X124291500Y-74199890D01*
X124271815Y-74266929D01*
X124269087Y-74270995D01*
X124200550Y-74368876D01*
X124162476Y-74423252D01*
X124162475Y-74423254D01*
X124065718Y-74630750D01*
X124065714Y-74630761D01*
X124006457Y-74851910D01*
X124006456Y-74851918D01*
X123986502Y-75079998D01*
X123986502Y-75080001D01*
X124006456Y-75308081D01*
X124006457Y-75308089D01*
X124065714Y-75529238D01*
X124065718Y-75529249D01*
X124108473Y-75620937D01*
X124162477Y-75736749D01*
X124293802Y-75924300D01*
X124455700Y-76086198D01*
X124643251Y-76217523D01*
X124674081Y-76231899D01*
X124850750Y-76314281D01*
X124850752Y-76314281D01*
X124850757Y-76314284D01*
X125071913Y-76373543D01*
X125234832Y-76387796D01*
X125299998Y-76393498D01*
X125300000Y-76393498D01*
X125300002Y-76393498D01*
X125357021Y-76388509D01*
X125528087Y-76373543D01*
X125749243Y-76314284D01*
X125956749Y-76217523D01*
X126144300Y-76086198D01*
X126306198Y-75924300D01*
X126437523Y-75736749D01*
X126534284Y-75529243D01*
X126593543Y-75308087D01*
X126611748Y-75099999D01*
X126613498Y-75080001D01*
X126613498Y-75079998D01*
X126601740Y-74945606D01*
X126593543Y-74851913D01*
X126534284Y-74630757D01*
X126437523Y-74423251D01*
X126330924Y-74271012D01*
X126308598Y-74204807D01*
X126308500Y-74199890D01*
X126308500Y-71132500D01*
X126328185Y-71065461D01*
X126380989Y-71019706D01*
X126432500Y-71008500D01*
X128099330Y-71008500D01*
X128099331Y-71008499D01*
X128294169Y-70969744D01*
X128477704Y-70893721D01*
X128642881Y-70783353D01*
X128783353Y-70642881D01*
X128841912Y-70584322D01*
X128841924Y-70584308D01*
X131081416Y-68344819D01*
X131142739Y-68311334D01*
X131169097Y-68308500D01*
X132897452Y-68308500D01*
X132964491Y-68328185D01*
X132985133Y-68344819D01*
X134175181Y-69534867D01*
X134208666Y-69596190D01*
X134211500Y-69622548D01*
X134211500Y-69741638D01*
X134191815Y-69808677D01*
X134187818Y-69814523D01*
X134100872Y-69934193D01*
X134060483Y-70013460D01*
X134012508Y-70064255D01*
X133944687Y-70081049D01*
X133878552Y-70058511D01*
X133839514Y-70013457D01*
X133799128Y-69934195D01*
X133678073Y-69767576D01*
X133678069Y-69767571D01*
X133532428Y-69621930D01*
X133532423Y-69621926D01*
X133365806Y-69500873D01*
X133365805Y-69500872D01*
X133365803Y-69500871D01*
X133308496Y-69471671D01*
X133182294Y-69407367D01*
X132986408Y-69343719D01*
X132810794Y-69315905D01*
X132782981Y-69311500D01*
X132577019Y-69311500D01*
X132552550Y-69315375D01*
X132373591Y-69343719D01*
X132177705Y-69407367D01*
X131994193Y-69500873D01*
X131827576Y-69621926D01*
X131827571Y-69621930D01*
X131681930Y-69767571D01*
X131681926Y-69767576D01*
X131560873Y-69934193D01*
X131465155Y-70122049D01*
X131464745Y-70121840D01*
X131453998Y-70141030D01*
X131389815Y-70229372D01*
X131389814Y-70229374D01*
X131282019Y-70440932D01*
X131208643Y-70666758D01*
X131171500Y-70901272D01*
X131171500Y-77067500D01*
X131151815Y-77134539D01*
X131099011Y-77180294D01*
X131047500Y-77191500D01*
X114332500Y-77191500D01*
X114265461Y-77171815D01*
X114219706Y-77119011D01*
X114208500Y-77067500D01*
X114208500Y-75099997D01*
X118895034Y-75099997D01*
X118895034Y-75100002D01*
X118914858Y-75326599D01*
X118914860Y-75326610D01*
X118973730Y-75546317D01*
X118973735Y-75546331D01*
X119069863Y-75752478D01*
X119120974Y-75825472D01*
X119800000Y-75146446D01*
X119800000Y-75152661D01*
X119827259Y-75254394D01*
X119879920Y-75345606D01*
X119954394Y-75420080D01*
X120045606Y-75472741D01*
X120147339Y-75500000D01*
X120153553Y-75500000D01*
X119474526Y-76179025D01*
X119547513Y-76230132D01*
X119547521Y-76230136D01*
X119753668Y-76326264D01*
X119753682Y-76326269D01*
X119973389Y-76385139D01*
X119973400Y-76385141D01*
X120199998Y-76404966D01*
X120200002Y-76404966D01*
X120426599Y-76385141D01*
X120426610Y-76385139D01*
X120646317Y-76326269D01*
X120646331Y-76326264D01*
X120852478Y-76230136D01*
X120925471Y-76179024D01*
X120246447Y-75500000D01*
X120252661Y-75500000D01*
X120354394Y-75472741D01*
X120445606Y-75420080D01*
X120520080Y-75345606D01*
X120572741Y-75254394D01*
X120600000Y-75152661D01*
X120600000Y-75146447D01*
X121279024Y-75825471D01*
X121330136Y-75752478D01*
X121426264Y-75546331D01*
X121426269Y-75546317D01*
X121485139Y-75326610D01*
X121485141Y-75326599D01*
X121504966Y-75100002D01*
X121504966Y-75099997D01*
X121485141Y-74873400D01*
X121485139Y-74873389D01*
X121426269Y-74653682D01*
X121426264Y-74653668D01*
X121330136Y-74447521D01*
X121330132Y-74447513D01*
X121279025Y-74374526D01*
X120600000Y-75053551D01*
X120600000Y-75047339D01*
X120572741Y-74945606D01*
X120520080Y-74854394D01*
X120445606Y-74779920D01*
X120354394Y-74727259D01*
X120252661Y-74700000D01*
X120246448Y-74700000D01*
X120925472Y-74020974D01*
X120852478Y-73969863D01*
X120646331Y-73873735D01*
X120646317Y-73873730D01*
X120426610Y-73814860D01*
X120426599Y-73814858D01*
X120200002Y-73795034D01*
X120199998Y-73795034D01*
X119973400Y-73814858D01*
X119973389Y-73814860D01*
X119753682Y-73873730D01*
X119753673Y-73873734D01*
X119547516Y-73969866D01*
X119547512Y-73969868D01*
X119474526Y-74020973D01*
X119474526Y-74020974D01*
X120153553Y-74700000D01*
X120147339Y-74700000D01*
X120045606Y-74727259D01*
X119954394Y-74779920D01*
X119879920Y-74854394D01*
X119827259Y-74945606D01*
X119800000Y-75047339D01*
X119800000Y-75053552D01*
X119120974Y-74374526D01*
X119120973Y-74374526D01*
X119069868Y-74447512D01*
X119069866Y-74447516D01*
X118973734Y-74653673D01*
X118973730Y-74653682D01*
X118914860Y-74873389D01*
X118914858Y-74873400D01*
X118895034Y-75099997D01*
X114208500Y-75099997D01*
X114208500Y-70123857D01*
X114208501Y-70123832D01*
X114208501Y-69881278D01*
X114195628Y-69800004D01*
X114171356Y-69646759D01*
X114097982Y-69420937D01*
X114064533Y-69355290D01*
X113990185Y-69209373D01*
X113850620Y-69017278D01*
X113788523Y-68955181D01*
X113679626Y-68846283D01*
X113679595Y-68846254D01*
X113654960Y-68821619D01*
X113654940Y-68821597D01*
X113482725Y-68649383D01*
X113482724Y-68649382D01*
X113482722Y-68649380D01*
X113290627Y-68509815D01*
X113079063Y-68402018D01*
X112853241Y-68328644D01*
X112853239Y-68328643D01*
X112853237Y-68328643D01*
X112689494Y-68302708D01*
X112618722Y-68291499D01*
X112381278Y-68291499D01*
X112376167Y-68291499D01*
X112376143Y-68291500D01*
X105936117Y-68291500D01*
X105869078Y-68271815D01*
X105866298Y-68269976D01*
X105806786Y-68229401D01*
X105806780Y-68229398D01*
X105806779Y-68229397D01*
X105806778Y-68229396D01*
X105562574Y-68111795D01*
X105562576Y-68111795D01*
X105303559Y-68031899D01*
X105303553Y-68031897D01*
X105035535Y-67991500D01*
X105035528Y-67991500D01*
X104764472Y-67991500D01*
X104764464Y-67991500D01*
X104496446Y-68031897D01*
X104496440Y-68031899D01*
X104237427Y-68111794D01*
X103993219Y-68229398D01*
X103769256Y-68382093D01*
X103570560Y-68566456D01*
X103570558Y-68566458D01*
X103401557Y-68778379D01*
X103266029Y-69013120D01*
X103167003Y-69265435D01*
X103166997Y-69265454D01*
X103106684Y-69529705D01*
X103106683Y-69529710D01*
X103086429Y-69799995D01*
X103086429Y-69800004D01*
X103106683Y-70070289D01*
X103106684Y-70070294D01*
X103166997Y-70334545D01*
X103166999Y-70334554D01*
X103167001Y-70334559D01*
X103266029Y-70586879D01*
X103401557Y-70821621D01*
X103570558Y-71033542D01*
X103769257Y-71217907D01*
X103993215Y-71370599D01*
X104237428Y-71488206D01*
X104496442Y-71568101D01*
X104496443Y-71568101D01*
X104496446Y-71568102D01*
X104764464Y-71608499D01*
X104764469Y-71608499D01*
X104764472Y-71608500D01*
X104764473Y-71608500D01*
X105035527Y-71608500D01*
X105035528Y-71608500D01*
X105035535Y-71608499D01*
X105303553Y-71568102D01*
X105303554Y-71568101D01*
X105303558Y-71568101D01*
X105562572Y-71488206D01*
X105806786Y-71370599D01*
X105866266Y-71330045D01*
X105932745Y-71308546D01*
X105936117Y-71308500D01*
X111067500Y-71308500D01*
X111134539Y-71328185D01*
X111180294Y-71380989D01*
X111191500Y-71432500D01*
X111191500Y-77876862D01*
X111191499Y-77876877D01*
X111191499Y-78118721D01*
X111207338Y-78218723D01*
X111228643Y-78353241D01*
X111302019Y-78579067D01*
X111407905Y-78786879D01*
X111409815Y-78790627D01*
X111549380Y-78982722D01*
X111549382Y-78982724D01*
X111549383Y-78982725D01*
X111721597Y-79154940D01*
X111721619Y-79154960D01*
X112246254Y-79679595D01*
X112246283Y-79679626D01*
X112334758Y-79768100D01*
X112417278Y-79850620D01*
X112609154Y-79990026D01*
X112609373Y-79990185D01*
X112820932Y-80097980D01*
X112820938Y-80097983D01*
X112985205Y-80151356D01*
X113046758Y-80171356D01*
X113281273Y-80208500D01*
X113281278Y-80208500D01*
X132818727Y-80208500D01*
X133053241Y-80171356D01*
X133279063Y-80097982D01*
X133490627Y-79990185D01*
X133519263Y-79969380D01*
X133682722Y-79850620D01*
X133850620Y-79682722D01*
X133990185Y-79490627D01*
X134097982Y-79279063D01*
X134171356Y-79053241D01*
X134182525Y-78982722D01*
X134208500Y-78818727D01*
X134208500Y-78581272D01*
X134190027Y-78464642D01*
X134188500Y-78445244D01*
X134188500Y-72531330D01*
X134208185Y-72464291D01*
X134260989Y-72418536D01*
X134330147Y-72408592D01*
X134385385Y-72431012D01*
X134443816Y-72473464D01*
X134534197Y-72539129D01*
X134651128Y-72598709D01*
X134717705Y-72632632D01*
X134717707Y-72632632D01*
X134717710Y-72632634D01*
X134822707Y-72666749D01*
X134913591Y-72696280D01*
X135015305Y-72712390D01*
X135117019Y-72728500D01*
X135117020Y-72728500D01*
X135322980Y-72728500D01*
X135322981Y-72728500D01*
X135526408Y-72696280D01*
X135722290Y-72632634D01*
X135900139Y-72542015D01*
X135956434Y-72528500D01*
X137023566Y-72528500D01*
X137079861Y-72542015D01*
X137257705Y-72632632D01*
X137257707Y-72632632D01*
X137257710Y-72632634D01*
X137362707Y-72666749D01*
X137453591Y-72696280D01*
X137555305Y-72712390D01*
X137657019Y-72728500D01*
X137657020Y-72728500D01*
X137862980Y-72728500D01*
X137862981Y-72728500D01*
X138066408Y-72696280D01*
X138262290Y-72632634D01*
X138445803Y-72539129D01*
X138536184Y-72473464D01*
X138594615Y-72431012D01*
X138660421Y-72407532D01*
X138728475Y-72423358D01*
X138777170Y-72473464D01*
X138791500Y-72531330D01*
X138791500Y-89367500D01*
X138771815Y-89434539D01*
X138719011Y-89480294D01*
X138667500Y-89491500D01*
X124581273Y-89491500D01*
X124346758Y-89528643D01*
X124120932Y-89602019D01*
X123909372Y-89709815D01*
X123717275Y-89849382D01*
X123549382Y-90017275D01*
X123409815Y-90209372D01*
X123302019Y-90420932D01*
X123228643Y-90646758D01*
X123191500Y-90881272D01*
X123191500Y-91118727D01*
X123228643Y-91353241D01*
X123265821Y-91467662D01*
X123285431Y-91528014D01*
X123291500Y-91566330D01*
X123291500Y-97430903D01*
X123271815Y-97497942D01*
X123255185Y-97518579D01*
X123118583Y-97655182D01*
X123057263Y-97688666D01*
X123030904Y-97691500D01*
X99169097Y-97691500D01*
X99102058Y-97671815D01*
X99081416Y-97655181D01*
X98944819Y-97518584D01*
X98911334Y-97457261D01*
X98908500Y-97430903D01*
X98908500Y-93652155D01*
X103540000Y-93652155D01*
X103540000Y-94750000D01*
X104739999Y-94750000D01*
X104714979Y-94810402D01*
X104690000Y-94935981D01*
X104690000Y-95064019D01*
X104714979Y-95189598D01*
X104739999Y-95250000D01*
X103540000Y-95250000D01*
X103540000Y-96347844D01*
X103546401Y-96407372D01*
X103546403Y-96407379D01*
X103596645Y-96542086D01*
X103596649Y-96542093D01*
X103682809Y-96657187D01*
X103682812Y-96657190D01*
X103797906Y-96743350D01*
X103797913Y-96743354D01*
X103932620Y-96793596D01*
X103932627Y-96793598D01*
X103992155Y-96799999D01*
X103992172Y-96800000D01*
X105090000Y-96800000D01*
X105090000Y-95600001D01*
X105150402Y-95625021D01*
X105275981Y-95650000D01*
X105404019Y-95650000D01*
X105529598Y-95625021D01*
X105590000Y-95600001D01*
X105590000Y-96800000D01*
X106687828Y-96800000D01*
X106687844Y-96799999D01*
X106747372Y-96793598D01*
X106747379Y-96793596D01*
X106882086Y-96743354D01*
X106882093Y-96743350D01*
X106997187Y-96657190D01*
X106997190Y-96657187D01*
X107083350Y-96542093D01*
X107083354Y-96542086D01*
X107133596Y-96407379D01*
X107133598Y-96407372D01*
X107139999Y-96347844D01*
X107140000Y-96347827D01*
X107140000Y-95250000D01*
X105940001Y-95250000D01*
X105965021Y-95189598D01*
X105990000Y-95064019D01*
X105990000Y-94999995D01*
X108614953Y-94999995D01*
X108614953Y-95000004D01*
X108635113Y-95269026D01*
X108635113Y-95269028D01*
X108695142Y-95532033D01*
X108695148Y-95532052D01*
X108793709Y-95783181D01*
X108793708Y-95783181D01*
X108928602Y-96016822D01*
X108982294Y-96084151D01*
X108982295Y-96084151D01*
X109818958Y-95247488D01*
X109843978Y-95307890D01*
X109915112Y-95414351D01*
X110005649Y-95504888D01*
X110112110Y-95576022D01*
X110172510Y-95601041D01*
X109334848Y-96438702D01*
X109517483Y-96563220D01*
X109517485Y-96563221D01*
X109760539Y-96680269D01*
X109760537Y-96680269D01*
X110018337Y-96759790D01*
X110018343Y-96759792D01*
X110285101Y-96799999D01*
X110285110Y-96800000D01*
X110554890Y-96800000D01*
X110554898Y-96799999D01*
X110821656Y-96759792D01*
X110821662Y-96759790D01*
X111079461Y-96680269D01*
X111322521Y-96563218D01*
X111505150Y-96438702D01*
X110667488Y-95601041D01*
X110727890Y-95576022D01*
X110834351Y-95504888D01*
X110924888Y-95414351D01*
X110996022Y-95307890D01*
X111021041Y-95247488D01*
X111857703Y-96084151D01*
X111857704Y-96084150D01*
X111911393Y-96016828D01*
X111911400Y-96016817D01*
X112046290Y-95783181D01*
X112144851Y-95532052D01*
X112144857Y-95532033D01*
X112204886Y-95269028D01*
X112204886Y-95269026D01*
X112225047Y-95000004D01*
X112225047Y-94999995D01*
X112204886Y-94730973D01*
X112204886Y-94730971D01*
X112144857Y-94467966D01*
X112144851Y-94467947D01*
X112046290Y-94216818D01*
X112046291Y-94216818D01*
X111911397Y-93983177D01*
X111857704Y-93915847D01*
X111021041Y-94752510D01*
X110996022Y-94692110D01*
X110924888Y-94585649D01*
X110834351Y-94495112D01*
X110727890Y-94423978D01*
X110667488Y-94398958D01*
X111505150Y-93561296D01*
X111322517Y-93436779D01*
X111322516Y-93436778D01*
X111079460Y-93319730D01*
X111079462Y-93319730D01*
X110821662Y-93240209D01*
X110821656Y-93240207D01*
X110554898Y-93200000D01*
X110285101Y-93200000D01*
X110018343Y-93240207D01*
X110018337Y-93240209D01*
X109760538Y-93319730D01*
X109517485Y-93436778D01*
X109517476Y-93436783D01*
X109334848Y-93561296D01*
X110172511Y-94398958D01*
X110112110Y-94423978D01*
X110005649Y-94495112D01*
X109915112Y-94585649D01*
X109843978Y-94692110D01*
X109818958Y-94752511D01*
X108982295Y-93915848D01*
X108928600Y-93983180D01*
X108793709Y-94216818D01*
X108695148Y-94467947D01*
X108695142Y-94467966D01*
X108635113Y-94730971D01*
X108635113Y-94730973D01*
X108614953Y-94999995D01*
X105990000Y-94999995D01*
X105990000Y-94935981D01*
X105965021Y-94810402D01*
X105940001Y-94750000D01*
X107140000Y-94750000D01*
X107140000Y-93652172D01*
X107139999Y-93652155D01*
X107133598Y-93592627D01*
X107133596Y-93592620D01*
X107083354Y-93457913D01*
X107083350Y-93457906D01*
X106997190Y-93342812D01*
X106997187Y-93342809D01*
X106882093Y-93256649D01*
X106882086Y-93256645D01*
X106747379Y-93206403D01*
X106747372Y-93206401D01*
X106687844Y-93200000D01*
X105590000Y-93200000D01*
X105590000Y-94399998D01*
X105529598Y-94374979D01*
X105404019Y-94350000D01*
X105275981Y-94350000D01*
X105150402Y-94374979D01*
X105090000Y-94399998D01*
X105090000Y-93200000D01*
X103992155Y-93200000D01*
X103932627Y-93206401D01*
X103932620Y-93206403D01*
X103797913Y-93256645D01*
X103797906Y-93256649D01*
X103682812Y-93342809D01*
X103682809Y-93342812D01*
X103596649Y-93457906D01*
X103596645Y-93457913D01*
X103546403Y-93592620D01*
X103546401Y-93592627D01*
X103540000Y-93652155D01*
X98908500Y-93652155D01*
X98908500Y-87076204D01*
X98928185Y-87009165D01*
X98944819Y-86988523D01*
X98950161Y-86983181D01*
X99050620Y-86882722D01*
X99190185Y-86690627D01*
X99297982Y-86479063D01*
X99371356Y-86253241D01*
X99379789Y-86199995D01*
X102894953Y-86199995D01*
X102894953Y-86200000D01*
X102915113Y-86469026D01*
X102915113Y-86469028D01*
X102975142Y-86732033D01*
X102975148Y-86732052D01*
X103073709Y-86983181D01*
X103073708Y-86983181D01*
X103208602Y-87216822D01*
X103262294Y-87284151D01*
X103262295Y-87284151D01*
X104098958Y-86447488D01*
X104123978Y-86507890D01*
X104195112Y-86614351D01*
X104285649Y-86704888D01*
X104392110Y-86776022D01*
X104452510Y-86801041D01*
X103614848Y-87638702D01*
X103797483Y-87763220D01*
X103797485Y-87763221D01*
X104040539Y-87880269D01*
X104040537Y-87880269D01*
X104298337Y-87959790D01*
X104298343Y-87959792D01*
X104565101Y-87999999D01*
X104565110Y-88000000D01*
X104834890Y-88000000D01*
X104834898Y-87999999D01*
X105101656Y-87959792D01*
X105101662Y-87959790D01*
X105359461Y-87880269D01*
X105602521Y-87763218D01*
X105785150Y-87638702D01*
X104947488Y-86801041D01*
X105007890Y-86776022D01*
X105114351Y-86704888D01*
X105204888Y-86614351D01*
X105276022Y-86507890D01*
X105301041Y-86447488D01*
X106137703Y-87284151D01*
X106137704Y-87284150D01*
X106191393Y-87216828D01*
X106191400Y-87216817D01*
X106326290Y-86983181D01*
X106424851Y-86732052D01*
X106424857Y-86732033D01*
X106484886Y-86469028D01*
X106484886Y-86469026D01*
X106505047Y-86200000D01*
X106505047Y-86199995D01*
X106484886Y-85930973D01*
X106484886Y-85930971D01*
X106424857Y-85667966D01*
X106424851Y-85667947D01*
X106326290Y-85416818D01*
X106326291Y-85416818D01*
X106191397Y-85183177D01*
X106137704Y-85115847D01*
X105301041Y-85952510D01*
X105276022Y-85892110D01*
X105204888Y-85785649D01*
X105114351Y-85695112D01*
X105007890Y-85623978D01*
X104947488Y-85598958D01*
X105785150Y-84761296D01*
X105602517Y-84636779D01*
X105602516Y-84636778D01*
X105359460Y-84519730D01*
X105359462Y-84519730D01*
X105101662Y-84440209D01*
X105101656Y-84440207D01*
X104834898Y-84400000D01*
X104565101Y-84400000D01*
X104298343Y-84440207D01*
X104298337Y-84440209D01*
X104040538Y-84519730D01*
X103797485Y-84636778D01*
X103797476Y-84636783D01*
X103614848Y-84761296D01*
X104452511Y-85598958D01*
X104392110Y-85623978D01*
X104285649Y-85695112D01*
X104195112Y-85785649D01*
X104123978Y-85892110D01*
X104098958Y-85952511D01*
X103262295Y-85115848D01*
X103208600Y-85183180D01*
X103073709Y-85416818D01*
X102975148Y-85667947D01*
X102975142Y-85667966D01*
X102915113Y-85930971D01*
X102915113Y-85930973D01*
X102894953Y-86199995D01*
X99379789Y-86199995D01*
X99408500Y-86018727D01*
X99408500Y-79771345D01*
X102891500Y-79771345D01*
X102891500Y-82468654D01*
X102898011Y-82529202D01*
X102898011Y-82529204D01*
X102949111Y-82666204D01*
X103036739Y-82783261D01*
X103153796Y-82870889D01*
X103290799Y-82921989D01*
X103318050Y-82924918D01*
X103351345Y-82928499D01*
X103351362Y-82928500D01*
X104323797Y-82928500D01*
X104390836Y-82948185D01*
X104411478Y-82964819D01*
X113955181Y-92508522D01*
X113988666Y-92569845D01*
X113991500Y-92596203D01*
X113991500Y-93962572D01*
X113974887Y-94024572D01*
X113866029Y-94213120D01*
X113767003Y-94465435D01*
X113766997Y-94465454D01*
X113706684Y-94729705D01*
X113706683Y-94729710D01*
X113686429Y-94999995D01*
X113686429Y-95000004D01*
X113706683Y-95270289D01*
X113706684Y-95270294D01*
X113766997Y-95534545D01*
X113766999Y-95534554D01*
X113767001Y-95534559D01*
X113866029Y-95786879D01*
X114001557Y-96021621D01*
X114170558Y-96233542D01*
X114369257Y-96417907D01*
X114593215Y-96570599D01*
X114837428Y-96688206D01*
X115096442Y-96768101D01*
X115096443Y-96768101D01*
X115096446Y-96768102D01*
X115364464Y-96808499D01*
X115364469Y-96808499D01*
X115364472Y-96808500D01*
X115364473Y-96808500D01*
X115635527Y-96808500D01*
X115635528Y-96808500D01*
X115691922Y-96800000D01*
X115903553Y-96768102D01*
X115903554Y-96768101D01*
X115903558Y-96768101D01*
X116162572Y-96688206D01*
X116406786Y-96570599D01*
X116466266Y-96530045D01*
X116532745Y-96508546D01*
X116536117Y-96508500D01*
X119543884Y-96508500D01*
X119610923Y-96528185D01*
X119613702Y-96530023D01*
X119673215Y-96570599D01*
X119917428Y-96688206D01*
X120176442Y-96768101D01*
X120176443Y-96768101D01*
X120176446Y-96768102D01*
X120444464Y-96808499D01*
X120444469Y-96808499D01*
X120444472Y-96808500D01*
X120444473Y-96808500D01*
X120715527Y-96808500D01*
X120715528Y-96808500D01*
X120771922Y-96800000D01*
X120983553Y-96768102D01*
X120983554Y-96768101D01*
X120983558Y-96768101D01*
X121242572Y-96688206D01*
X121486786Y-96570599D01*
X121710743Y-96417907D01*
X121909442Y-96233542D01*
X122078443Y-96021621D01*
X122213971Y-95786879D01*
X122312999Y-95534559D01*
X122373315Y-95270299D01*
X122373410Y-95269028D01*
X122393571Y-95000004D01*
X122393571Y-94999995D01*
X122373316Y-94729710D01*
X122373315Y-94729705D01*
X122373315Y-94729701D01*
X122312999Y-94465441D01*
X122213971Y-94213121D01*
X122078443Y-93978379D01*
X121909442Y-93766458D01*
X121710743Y-93582093D01*
X121486786Y-93429401D01*
X121486780Y-93429398D01*
X121486779Y-93429397D01*
X121486778Y-93429396D01*
X121242574Y-93311795D01*
X121242576Y-93311795D01*
X120983559Y-93231899D01*
X120983553Y-93231897D01*
X120715535Y-93191500D01*
X120715528Y-93191500D01*
X120444472Y-93191500D01*
X120444464Y-93191500D01*
X120176446Y-93231897D01*
X120176440Y-93231899D01*
X119917427Y-93311794D01*
X119673219Y-93429398D01*
X119662388Y-93436783D01*
X119613734Y-93469954D01*
X119547256Y-93491454D01*
X119543884Y-93491500D01*
X117132500Y-93491500D01*
X117065461Y-93471815D01*
X117019706Y-93419011D01*
X117008500Y-93367500D01*
X117008500Y-91801272D01*
X116986891Y-91664843D01*
X116971356Y-91566759D01*
X116971355Y-91566755D01*
X116971355Y-91566754D01*
X116899489Y-91345575D01*
X116898427Y-91341809D01*
X116790182Y-91129368D01*
X116756292Y-91082723D01*
X116756291Y-91082722D01*
X116650622Y-90937281D01*
X116650620Y-90937278D01*
X116594614Y-90881272D01*
X116479626Y-90766283D01*
X116479595Y-90766254D01*
X106544819Y-80831478D01*
X106511334Y-80770155D01*
X106508500Y-80743797D01*
X106508500Y-79771362D01*
X106508499Y-79771345D01*
X106505157Y-79740270D01*
X106501989Y-79710799D01*
X106491517Y-79682724D01*
X106459909Y-79597980D01*
X106450889Y-79573796D01*
X106363261Y-79456739D01*
X106246204Y-79369111D01*
X106109203Y-79318011D01*
X106048654Y-79311500D01*
X106048638Y-79311500D01*
X103351362Y-79311500D01*
X103351345Y-79311500D01*
X103290797Y-79318011D01*
X103290795Y-79318011D01*
X103153795Y-79369111D01*
X103036739Y-79456739D01*
X102949111Y-79573795D01*
X102898011Y-79710795D01*
X102898011Y-79710797D01*
X102891500Y-79771345D01*
X99408500Y-79771345D01*
X99408500Y-76432500D01*
X99428185Y-76365461D01*
X99480989Y-76319706D01*
X99532500Y-76308500D01*
X103863884Y-76308500D01*
X103930923Y-76328185D01*
X103933702Y-76330023D01*
X103993215Y-76370599D01*
X104237428Y-76488206D01*
X104496442Y-76568101D01*
X104496443Y-76568101D01*
X104496446Y-76568102D01*
X104764464Y-76608499D01*
X104764469Y-76608499D01*
X104764472Y-76608500D01*
X104764473Y-76608500D01*
X105035527Y-76608500D01*
X105035528Y-76608500D01*
X105035535Y-76608499D01*
X105303553Y-76568102D01*
X105303554Y-76568101D01*
X105303558Y-76568101D01*
X105562572Y-76488206D01*
X105806786Y-76370599D01*
X106030743Y-76217907D01*
X106229442Y-76033542D01*
X106398443Y-75821621D01*
X106533971Y-75586879D01*
X106632999Y-75334559D01*
X106693315Y-75070299D01*
X106695036Y-75047339D01*
X106713571Y-74800004D01*
X106713571Y-74799995D01*
X106693316Y-74529710D01*
X106693315Y-74529705D01*
X106693315Y-74529701D01*
X106632999Y-74265441D01*
X106533971Y-74013121D01*
X106398443Y-73778379D01*
X106229442Y-73566458D01*
X106030743Y-73382093D01*
X105806786Y-73229401D01*
X105806780Y-73229398D01*
X105806779Y-73229397D01*
X105806778Y-73229396D01*
X105562574Y-73111795D01*
X105562576Y-73111795D01*
X105303559Y-73031899D01*
X105303553Y-73031897D01*
X105035535Y-72991500D01*
X105035528Y-72991500D01*
X104764472Y-72991500D01*
X104764464Y-72991500D01*
X104496446Y-73031897D01*
X104496440Y-73031899D01*
X104237427Y-73111794D01*
X103993219Y-73229398D01*
X103993215Y-73229401D01*
X103933734Y-73269954D01*
X103867256Y-73291454D01*
X103863884Y-73291500D01*
X99532500Y-73291500D01*
X99465461Y-73271815D01*
X99419706Y-73219011D01*
X99408500Y-73167500D01*
X99408500Y-63452155D01*
X103100000Y-63452155D01*
X103100000Y-64550000D01*
X104299999Y-64550000D01*
X104274979Y-64610402D01*
X104250000Y-64735981D01*
X104250000Y-64864019D01*
X104274979Y-64989598D01*
X104299999Y-65050000D01*
X103100000Y-65050000D01*
X103100000Y-66147844D01*
X103106401Y-66207372D01*
X103106403Y-66207379D01*
X103156645Y-66342086D01*
X103156649Y-66342093D01*
X103242809Y-66457187D01*
X103242812Y-66457190D01*
X103357906Y-66543350D01*
X103357913Y-66543354D01*
X103492620Y-66593596D01*
X103492627Y-66593598D01*
X103552155Y-66599999D01*
X103552172Y-66600000D01*
X104650000Y-66600000D01*
X104650000Y-65400001D01*
X104710402Y-65425021D01*
X104835981Y-65450000D01*
X104964019Y-65450000D01*
X105089598Y-65425021D01*
X105150000Y-65400001D01*
X105150000Y-66600000D01*
X106247828Y-66600000D01*
X106247844Y-66599999D01*
X106307372Y-66593598D01*
X106307379Y-66593596D01*
X106442086Y-66543354D01*
X106442093Y-66543350D01*
X106557187Y-66457190D01*
X106557190Y-66457187D01*
X106643350Y-66342093D01*
X106643354Y-66342086D01*
X106693596Y-66207379D01*
X106693598Y-66207372D01*
X106699999Y-66147844D01*
X106700000Y-66147827D01*
X106700000Y-65050000D01*
X105500001Y-65050000D01*
X105525021Y-64989598D01*
X105550000Y-64864019D01*
X105550000Y-64735981D01*
X105525021Y-64610402D01*
X105500001Y-64550000D01*
X106700000Y-64550000D01*
X106700000Y-63452172D01*
X106699999Y-63452155D01*
X106693598Y-63392627D01*
X106693596Y-63392620D01*
X106643354Y-63257913D01*
X106643350Y-63257906D01*
X106557190Y-63142812D01*
X106557187Y-63142809D01*
X106442093Y-63056649D01*
X106442086Y-63056645D01*
X106307379Y-63006403D01*
X106307372Y-63006401D01*
X106247844Y-63000000D01*
X105150000Y-63000000D01*
X105150000Y-64199998D01*
X105089598Y-64174979D01*
X104964019Y-64150000D01*
X104835981Y-64150000D01*
X104710402Y-64174979D01*
X104650000Y-64199998D01*
X104650000Y-63000000D01*
X103552155Y-63000000D01*
X103492627Y-63006401D01*
X103492620Y-63006403D01*
X103357913Y-63056645D01*
X103357906Y-63056649D01*
X103242812Y-63142809D01*
X103242809Y-63142812D01*
X103156649Y-63257906D01*
X103156645Y-63257913D01*
X103106403Y-63392620D01*
X103106401Y-63392627D01*
X103100000Y-63452155D01*
X99408500Y-63452155D01*
X99408500Y-57252155D01*
X103100000Y-57252155D01*
X103100000Y-58350000D01*
X104299999Y-58350000D01*
X104274979Y-58410402D01*
X104250000Y-58535981D01*
X104250000Y-58664019D01*
X104274979Y-58789598D01*
X104299999Y-58850000D01*
X103100000Y-58850000D01*
X103100000Y-59947844D01*
X103106401Y-60007372D01*
X103106403Y-60007379D01*
X103156645Y-60142086D01*
X103156649Y-60142093D01*
X103242809Y-60257187D01*
X103242812Y-60257190D01*
X103357906Y-60343350D01*
X103357913Y-60343354D01*
X103492620Y-60393596D01*
X103492627Y-60393598D01*
X103552155Y-60399999D01*
X103552172Y-60400000D01*
X104650000Y-60400000D01*
X104650000Y-59200001D01*
X104710402Y-59225021D01*
X104835981Y-59250000D01*
X104964019Y-59250000D01*
X105089598Y-59225021D01*
X105150000Y-59200001D01*
X105150000Y-60400000D01*
X106247828Y-60400000D01*
X106247844Y-60399999D01*
X106307372Y-60393598D01*
X106307379Y-60393596D01*
X106442086Y-60343354D01*
X106442093Y-60343350D01*
X106557187Y-60257190D01*
X106557190Y-60257187D01*
X106643350Y-60142093D01*
X106643354Y-60142086D01*
X106693596Y-60007379D01*
X106693598Y-60007372D01*
X106699999Y-59947844D01*
X106700000Y-59947827D01*
X106700000Y-58850000D01*
X105500001Y-58850000D01*
X105525021Y-58789598D01*
X105550000Y-58664019D01*
X105550000Y-58535981D01*
X105525021Y-58410402D01*
X105500001Y-58350000D01*
X106700000Y-58350000D01*
X106700000Y-57252172D01*
X106699999Y-57252155D01*
X106693598Y-57192627D01*
X106693596Y-57192620D01*
X106643354Y-57057913D01*
X106643350Y-57057906D01*
X106557190Y-56942812D01*
X106557187Y-56942809D01*
X106442093Y-56856649D01*
X106442086Y-56856645D01*
X106307379Y-56806403D01*
X106307372Y-56806401D01*
X106247844Y-56800000D01*
X105150000Y-56800000D01*
X105150000Y-57999998D01*
X105089598Y-57974979D01*
X104964019Y-57950000D01*
X104835981Y-57950000D01*
X104710402Y-57974979D01*
X104650000Y-57999998D01*
X104650000Y-56800000D01*
X103552155Y-56800000D01*
X103492627Y-56806401D01*
X103492620Y-56806403D01*
X103357913Y-56856645D01*
X103357906Y-56856649D01*
X103242812Y-56942809D01*
X103242809Y-56942812D01*
X103156649Y-57057906D01*
X103156645Y-57057913D01*
X103106403Y-57192620D01*
X103106401Y-57192627D01*
X103100000Y-57252155D01*
X99408500Y-57252155D01*
X99408500Y-53599995D01*
X103086429Y-53599995D01*
X103086429Y-53600004D01*
X103106683Y-53870289D01*
X103106684Y-53870294D01*
X103166997Y-54134545D01*
X103166999Y-54134554D01*
X103167001Y-54134559D01*
X103266029Y-54386879D01*
X103401557Y-54621621D01*
X103570558Y-54833542D01*
X103769257Y-55017907D01*
X103993215Y-55170599D01*
X104237428Y-55288206D01*
X104496442Y-55368101D01*
X104496443Y-55368101D01*
X104496446Y-55368102D01*
X104764464Y-55408499D01*
X104764469Y-55408499D01*
X104764472Y-55408500D01*
X104764473Y-55408500D01*
X105035527Y-55408500D01*
X105035528Y-55408500D01*
X105035535Y-55408499D01*
X105303553Y-55368102D01*
X105303554Y-55368101D01*
X105303558Y-55368101D01*
X105562572Y-55288206D01*
X105806786Y-55170599D01*
X106030743Y-55017907D01*
X106166869Y-54891600D01*
X106229401Y-54860433D01*
X106251210Y-54858500D01*
X106527350Y-54858500D01*
X106594389Y-54878185D01*
X106615031Y-54894819D01*
X109040070Y-57319858D01*
X109180142Y-57459930D01*
X109340402Y-57576366D01*
X109423790Y-57618854D01*
X109516898Y-57666296D01*
X109516900Y-57666296D01*
X109516903Y-57666298D01*
X109617888Y-57699110D01*
X109705299Y-57727512D01*
X109900949Y-57758500D01*
X109900954Y-57758500D01*
X111187350Y-57758500D01*
X111254389Y-57778185D01*
X111275031Y-57794819D01*
X119034359Y-65554147D01*
X119059058Y-65589418D01*
X119062475Y-65596746D01*
X119062476Y-65596748D01*
X119062477Y-65596749D01*
X119193802Y-65784300D01*
X119355700Y-65946198D01*
X119543251Y-66077523D01*
X119661150Y-66132500D01*
X119750750Y-66174281D01*
X119750752Y-66174281D01*
X119750757Y-66174284D01*
X119971913Y-66233543D01*
X120134832Y-66247796D01*
X120199998Y-66253498D01*
X120200000Y-66253498D01*
X120200002Y-66253498D01*
X120257021Y-66248509D01*
X120428087Y-66233543D01*
X120617741Y-66182724D01*
X120649835Y-66178500D01*
X124924806Y-66178500D01*
X124956899Y-66182724D01*
X125071913Y-66213543D01*
X125234832Y-66227796D01*
X125299998Y-66233498D01*
X125300000Y-66233498D01*
X125300002Y-66233498D01*
X125357021Y-66228509D01*
X125528087Y-66213543D01*
X125749243Y-66154284D01*
X125956749Y-66057523D01*
X126144300Y-65926198D01*
X126306198Y-65764300D01*
X126437523Y-65576749D01*
X126534284Y-65369243D01*
X126593543Y-65148087D01*
X126613498Y-64920000D01*
X126611806Y-64900666D01*
X126602823Y-64797982D01*
X126593543Y-64691913D01*
X126562725Y-64576898D01*
X126558500Y-64544805D01*
X126558500Y-60482500D01*
X126578185Y-60415461D01*
X126630989Y-60369706D01*
X126682500Y-60358500D01*
X133837500Y-60358500D01*
X133904539Y-60378185D01*
X133950294Y-60430989D01*
X133961500Y-60482500D01*
X133961500Y-62170507D01*
X133941815Y-62237546D01*
X133889011Y-62283301D01*
X133819853Y-62293245D01*
X133756297Y-62264220D01*
X133737182Y-62243393D01*
X133671583Y-62153105D01*
X133526895Y-62008417D01*
X133361349Y-61888140D01*
X133179029Y-61795244D01*
X132984413Y-61732009D01*
X132930000Y-61723390D01*
X132930000Y-63084314D01*
X132925606Y-63079920D01*
X132834394Y-63027259D01*
X132732661Y-63000000D01*
X132627339Y-63000000D01*
X132525606Y-63027259D01*
X132434394Y-63079920D01*
X132430000Y-63084314D01*
X132430000Y-61723390D01*
X132375586Y-61732009D01*
X132180970Y-61795244D01*
X131998650Y-61888140D01*
X131833105Y-62008417D01*
X131833104Y-62008417D01*
X131688417Y-62153104D01*
X131688417Y-62153105D01*
X131568140Y-62318650D01*
X131475244Y-62500968D01*
X131412009Y-62695582D01*
X131380000Y-62897682D01*
X131380000Y-63150000D01*
X132364314Y-63150000D01*
X132359920Y-63154394D01*
X132307259Y-63245606D01*
X132280000Y-63347339D01*
X132280000Y-63452661D01*
X132307259Y-63554394D01*
X132359920Y-63645606D01*
X132364314Y-63650000D01*
X131380000Y-63650000D01*
X131380000Y-63902317D01*
X131412009Y-64104417D01*
X131475244Y-64299031D01*
X131568140Y-64481349D01*
X131688417Y-64646894D01*
X131688417Y-64646895D01*
X131833104Y-64791582D01*
X131998650Y-64911859D01*
X132180968Y-65004754D01*
X132375578Y-65067988D01*
X132430000Y-65076607D01*
X132430000Y-63715686D01*
X132434394Y-63720080D01*
X132525606Y-63772741D01*
X132627339Y-63800000D01*
X132732661Y-63800000D01*
X132834394Y-63772741D01*
X132925606Y-63720080D01*
X132930000Y-63715686D01*
X132930000Y-65076606D01*
X132984421Y-65067988D01*
X133179031Y-65004754D01*
X133361349Y-64911859D01*
X133526894Y-64791582D01*
X133526895Y-64791582D01*
X133671582Y-64646895D01*
X133671582Y-64646894D01*
X133791861Y-64481347D01*
X133834745Y-64397181D01*
X133882718Y-64346385D01*
X133950539Y-64329589D01*
X134016674Y-64352126D01*
X134055715Y-64397180D01*
X134100873Y-64485806D01*
X134221926Y-64652423D01*
X134221930Y-64652428D01*
X134367571Y-64798069D01*
X134367576Y-64798073D01*
X134458344Y-64864019D01*
X134534197Y-64919129D01*
X134620807Y-64963259D01*
X134717705Y-65012632D01*
X134717707Y-65012632D01*
X134717710Y-65012634D01*
X134822707Y-65046749D01*
X134913591Y-65076280D01*
X135015305Y-65092390D01*
X135117019Y-65108500D01*
X135117020Y-65108500D01*
X135322980Y-65108500D01*
X135322981Y-65108500D01*
X135526408Y-65076280D01*
X135722290Y-65012634D01*
X135905803Y-64919129D01*
X136072430Y-64798068D01*
X136218068Y-64652430D01*
X136339129Y-64485803D01*
X136379515Y-64406540D01*
X136427490Y-64355745D01*
X136495311Y-64338950D01*
X136561446Y-64361487D01*
X136600484Y-64406540D01*
X136640871Y-64485803D01*
X136727819Y-64605476D01*
X136751298Y-64671280D01*
X136751500Y-64678360D01*
X136751500Y-66859333D01*
X136790254Y-67054161D01*
X136790256Y-67054169D01*
X136850938Y-67200669D01*
X136866278Y-67237703D01*
X136976646Y-67402881D01*
X136976649Y-67402884D01*
X137597115Y-68023351D01*
X137597123Y-68023357D01*
X137762286Y-68133715D01*
X137762289Y-68133716D01*
X137762297Y-68133722D01*
X137869809Y-68178254D01*
X137945831Y-68209744D01*
X138140666Y-68248499D01*
X138140670Y-68248500D01*
X138140671Y-68248500D01*
X138140672Y-68248500D01*
X138339329Y-68248500D01*
X144923797Y-68248500D01*
X144990836Y-68268185D01*
X145011478Y-68284819D01*
X147406254Y-70679595D01*
X147406283Y-70679626D01*
X147510008Y-70783350D01*
X147577278Y-70850620D01*
X147759099Y-70982720D01*
X147759101Y-70982723D01*
X147769368Y-70990182D01*
X147769370Y-70990183D01*
X147769373Y-70990185D01*
X147854464Y-71033541D01*
X147980932Y-71097980D01*
X147980934Y-71097980D01*
X147980937Y-71097982D01*
X148087173Y-71132500D01*
X148206758Y-71171356D01*
X148441273Y-71208500D01*
X148441278Y-71208500D01*
X148678722Y-71208500D01*
X149981278Y-71208500D01*
X159067500Y-71208500D01*
X159134539Y-71228185D01*
X159180294Y-71280989D01*
X159191500Y-71332500D01*
X159191500Y-71348654D01*
X159198011Y-71409202D01*
X159198011Y-71409204D01*
X159249111Y-71546204D01*
X159336739Y-71663261D01*
X159453796Y-71750889D01*
X159590799Y-71801989D01*
X159618050Y-71804918D01*
X159651345Y-71808499D01*
X159651362Y-71808500D01*
X162348638Y-71808500D01*
X162348654Y-71808499D01*
X162375692Y-71805591D01*
X162409201Y-71801989D01*
X162546204Y-71750889D01*
X162663261Y-71663261D01*
X162750889Y-71546204D01*
X162801989Y-71409201D01*
X162806139Y-71370599D01*
X162808499Y-71348654D01*
X162808500Y-71348637D01*
X162808500Y-68651362D01*
X162808499Y-68651345D01*
X162805157Y-68620270D01*
X162801989Y-68590799D01*
X162792909Y-68566456D01*
X162779522Y-68530564D01*
X162750889Y-68453796D01*
X162663261Y-68336739D01*
X162546204Y-68249111D01*
X162544563Y-68248499D01*
X162409203Y-68198011D01*
X162348654Y-68191500D01*
X162348638Y-68191500D01*
X160823857Y-68191500D01*
X160823833Y-68191499D01*
X160818722Y-68191499D01*
X160581278Y-68191499D01*
X160576167Y-68191499D01*
X160576143Y-68191500D01*
X149236203Y-68191500D01*
X149169164Y-68171815D01*
X149148522Y-68155181D01*
X147082723Y-66089382D01*
X147082721Y-66089380D01*
X146890627Y-65949815D01*
X146679063Y-65842018D01*
X146453241Y-65768644D01*
X146453239Y-65768643D01*
X146453237Y-65768643D01*
X146289494Y-65742708D01*
X146218722Y-65731499D01*
X145981278Y-65731499D01*
X145926912Y-65740109D01*
X145746762Y-65768643D01*
X145746761Y-65768643D01*
X145520934Y-65842019D01*
X145309372Y-65949815D01*
X145228600Y-66008500D01*
X145117279Y-66089380D01*
X145117277Y-66089382D01*
X145117276Y-66089382D01*
X145011478Y-66195181D01*
X144950155Y-66228666D01*
X144923797Y-66231500D01*
X138892500Y-66231500D01*
X138825461Y-66211815D01*
X138779706Y-66159011D01*
X138768500Y-66107500D01*
X138768500Y-64781144D01*
X138788185Y-64714105D01*
X138840989Y-64668350D01*
X138910147Y-64658406D01*
X138973703Y-64687431D01*
X139008681Y-64737810D01*
X139049110Y-64846203D01*
X139049111Y-64846204D01*
X139136739Y-64963261D01*
X139253796Y-65050889D01*
X139390799Y-65101989D01*
X139418050Y-65104918D01*
X139451345Y-65108499D01*
X139451362Y-65108500D01*
X141148638Y-65108500D01*
X141148654Y-65108499D01*
X141175692Y-65105591D01*
X141209201Y-65101989D01*
X141346204Y-65050889D01*
X141463261Y-64963261D01*
X141467057Y-64958189D01*
X141522990Y-64916318D01*
X141566324Y-64908500D01*
X146116143Y-64908500D01*
X146116167Y-64908501D01*
X146121278Y-64908501D01*
X146358721Y-64908501D01*
X146358722Y-64908501D01*
X146593241Y-64871356D01*
X146819063Y-64797982D01*
X147030627Y-64690185D01*
X147051527Y-64675000D01*
X147222722Y-64550620D01*
X147390620Y-64382722D01*
X147390621Y-64382720D01*
X147397681Y-64375660D01*
X147397686Y-64375653D01*
X150688522Y-61084819D01*
X150749845Y-61051334D01*
X150776203Y-61048500D01*
X154863797Y-61048500D01*
X154930836Y-61068185D01*
X154951478Y-61084819D01*
X159202045Y-65335386D01*
X159235255Y-65395474D01*
X159247700Y-65450000D01*
X159267001Y-65534559D01*
X159366029Y-65786879D01*
X159501557Y-66021621D01*
X159670558Y-66233542D01*
X159869257Y-66417907D01*
X160093215Y-66570599D01*
X160337428Y-66688206D01*
X160596442Y-66768101D01*
X160596443Y-66768101D01*
X160596446Y-66768102D01*
X160864464Y-66808499D01*
X160864469Y-66808499D01*
X160864472Y-66808500D01*
X160864473Y-66808500D01*
X161135527Y-66808500D01*
X161135528Y-66808500D01*
X161135535Y-66808499D01*
X161403553Y-66768102D01*
X161403554Y-66768101D01*
X161403558Y-66768101D01*
X161662572Y-66688206D01*
X161906786Y-66570599D01*
X162130743Y-66417907D01*
X162329442Y-66233542D01*
X162471675Y-66055186D01*
X162528863Y-66015047D01*
X162568622Y-66008500D01*
X163367500Y-66008500D01*
X163434539Y-66028185D01*
X163480294Y-66080989D01*
X163491500Y-66132500D01*
X163491500Y-72867500D01*
X163471815Y-72934539D01*
X163419011Y-72980294D01*
X163367500Y-72991500D01*
X152900666Y-72991500D01*
X152705838Y-73030254D01*
X152705830Y-73030256D01*
X152522298Y-73106277D01*
X152522289Y-73106282D01*
X152357119Y-73216646D01*
X152357115Y-73216649D01*
X151918586Y-73655180D01*
X151857263Y-73688665D01*
X151830905Y-73691499D01*
X151681273Y-73691499D01*
X151446764Y-73728642D01*
X151446762Y-73728642D01*
X151446759Y-73728643D01*
X151333848Y-73765330D01*
X151220932Y-73802019D01*
X151009373Y-73909815D01*
X150817276Y-74049382D01*
X149817281Y-75049377D01*
X149649378Y-75217279D01*
X149649374Y-75217284D01*
X149523436Y-75390623D01*
X149523437Y-75390624D01*
X149509816Y-75409371D01*
X149509811Y-75409380D01*
X149402019Y-75620934D01*
X149328643Y-75846761D01*
X149328643Y-75846762D01*
X149291499Y-76081278D01*
X149291499Y-76323832D01*
X149291500Y-76323857D01*
X149291500Y-97578727D01*
X149328643Y-97813241D01*
X149365257Y-97925925D01*
X149402018Y-98039063D01*
X149402019Y-98039064D01*
X149427985Y-98090026D01*
X149441500Y-98146320D01*
X149441500Y-98358654D01*
X149448011Y-98419202D01*
X149448011Y-98419204D01*
X149494141Y-98542880D01*
X149499111Y-98556204D01*
X149586739Y-98673261D01*
X149703796Y-98760889D01*
X149840799Y-98811989D01*
X149868050Y-98814918D01*
X149901345Y-98818499D01*
X149901362Y-98818500D01*
X150113679Y-98818500D01*
X150169974Y-98832015D01*
X150220932Y-98857980D01*
X150220934Y-98857980D01*
X150220937Y-98857982D01*
X150341984Y-98897312D01*
X150446758Y-98931356D01*
X150681273Y-98968500D01*
X150681278Y-98968500D01*
X150918727Y-98968500D01*
X151153241Y-98931356D01*
X151379063Y-98857982D01*
X151430026Y-98832014D01*
X151486321Y-98818500D01*
X151698638Y-98818500D01*
X151698654Y-98818499D01*
X151725692Y-98815591D01*
X151759201Y-98811989D01*
X151896204Y-98760889D01*
X152013261Y-98673261D01*
X152100889Y-98556204D01*
X152146138Y-98434887D01*
X152188009Y-98378956D01*
X152253474Y-98354539D01*
X152321746Y-98369391D01*
X152353545Y-98394236D01*
X152416760Y-98462906D01*
X152594424Y-98601189D01*
X152594425Y-98601189D01*
X152594427Y-98601191D01*
X152654314Y-98633600D01*
X152792426Y-98708342D01*
X153005365Y-98781444D01*
X153227431Y-98818500D01*
X153452569Y-98818500D01*
X153674635Y-98781444D01*
X153887574Y-98708342D01*
X154085576Y-98601189D01*
X154263240Y-98462906D01*
X154415722Y-98297268D01*
X154415797Y-98297152D01*
X154415841Y-98297114D01*
X154418875Y-98293218D01*
X154419676Y-98293841D01*
X154468938Y-98251791D01*
X154538168Y-98242359D01*
X154601507Y-98271854D01*
X154619930Y-98292077D01*
X154729380Y-98442722D01*
X154897278Y-98610620D01*
X155089373Y-98750185D01*
X155168757Y-98790633D01*
X155300932Y-98857980D01*
X155300934Y-98857980D01*
X155300937Y-98857982D01*
X155421984Y-98897312D01*
X155526758Y-98931356D01*
X155761273Y-98968500D01*
X155761278Y-98968500D01*
X155998727Y-98968500D01*
X156233241Y-98931356D01*
X156459063Y-98857982D01*
X156670627Y-98750185D01*
X156862722Y-98610620D01*
X157030620Y-98442722D01*
X157140069Y-98292077D01*
X157195399Y-98249412D01*
X157265012Y-98243433D01*
X157326807Y-98276039D01*
X157341032Y-98293302D01*
X157341132Y-98293225D01*
X157343896Y-98296777D01*
X157344190Y-98297133D01*
X157344278Y-98297268D01*
X157344280Y-98297270D01*
X157344284Y-98297276D01*
X157470968Y-98434889D01*
X157496760Y-98462906D01*
X157674424Y-98601189D01*
X157674425Y-98601189D01*
X157674427Y-98601191D01*
X157734314Y-98633600D01*
X157872426Y-98708342D01*
X158085365Y-98781444D01*
X158307431Y-98818500D01*
X158532569Y-98818500D01*
X158754635Y-98781444D01*
X158967574Y-98708342D01*
X159165576Y-98601189D01*
X159343240Y-98462906D01*
X159495722Y-98297268D01*
X159586193Y-98158790D01*
X159639338Y-98113437D01*
X159708569Y-98104013D01*
X159771905Y-98133515D01*
X159793804Y-98158787D01*
X159884278Y-98297268D01*
X159884283Y-98297273D01*
X159884284Y-98297276D01*
X160010968Y-98434889D01*
X160036760Y-98462906D01*
X160214424Y-98601189D01*
X160214425Y-98601189D01*
X160214427Y-98601191D01*
X160274314Y-98633600D01*
X160412426Y-98708342D01*
X160625365Y-98781444D01*
X160847431Y-98818500D01*
X161072569Y-98818500D01*
X161294635Y-98781444D01*
X161507574Y-98708342D01*
X161705576Y-98601189D01*
X161883240Y-98462906D01*
X162035722Y-98297268D01*
X162126193Y-98158790D01*
X162179338Y-98113437D01*
X162248569Y-98104013D01*
X162311905Y-98133515D01*
X162333804Y-98158787D01*
X162424278Y-98297268D01*
X162424283Y-98297273D01*
X162424284Y-98297276D01*
X162550968Y-98434889D01*
X162576760Y-98462906D01*
X162754424Y-98601189D01*
X162754425Y-98601189D01*
X162754427Y-98601191D01*
X162814314Y-98633600D01*
X162952426Y-98708342D01*
X163165365Y-98781444D01*
X163387431Y-98818500D01*
X163612569Y-98818500D01*
X163834635Y-98781444D01*
X164047574Y-98708342D01*
X164245576Y-98601189D01*
X164423240Y-98462906D01*
X164575722Y-98297268D01*
X164698860Y-98108791D01*
X164789296Y-97902616D01*
X164844564Y-97684368D01*
X164853318Y-97578727D01*
X164863156Y-97460005D01*
X164863156Y-97459994D01*
X164844565Y-97235640D01*
X164844563Y-97235628D01*
X164789296Y-97017385D01*
X164779071Y-96994075D01*
X164698860Y-96811209D01*
X164697089Y-96808499D01*
X164618498Y-96688206D01*
X164575722Y-96622732D01*
X164575719Y-96622729D01*
X164575715Y-96622723D01*
X164423243Y-96457097D01*
X164423238Y-96457092D01*
X164245577Y-96318812D01*
X164245572Y-96318808D01*
X164047580Y-96211661D01*
X164047577Y-96211659D01*
X164047574Y-96211658D01*
X164047571Y-96211657D01*
X164047569Y-96211656D01*
X163834637Y-96138556D01*
X163612569Y-96101500D01*
X163387431Y-96101500D01*
X163165362Y-96138556D01*
X162952430Y-96211656D01*
X162952419Y-96211661D01*
X162754427Y-96318808D01*
X162754422Y-96318812D01*
X162576761Y-96457092D01*
X162576756Y-96457097D01*
X162424284Y-96622723D01*
X162424276Y-96622734D01*
X162333808Y-96761206D01*
X162280662Y-96806562D01*
X162211431Y-96815986D01*
X162148095Y-96786484D01*
X162126192Y-96761206D01*
X162068286Y-96672576D01*
X162035722Y-96622732D01*
X162035719Y-96622729D01*
X162035715Y-96622723D01*
X161883243Y-96457097D01*
X161883238Y-96457092D01*
X161705577Y-96318812D01*
X161705572Y-96318808D01*
X161507580Y-96211661D01*
X161507577Y-96211659D01*
X161507574Y-96211658D01*
X161507571Y-96211657D01*
X161507569Y-96211656D01*
X161294637Y-96138556D01*
X161072569Y-96101500D01*
X160847431Y-96101500D01*
X160625362Y-96138556D01*
X160412430Y-96211656D01*
X160412419Y-96211661D01*
X160214427Y-96318808D01*
X160214422Y-96318812D01*
X160036761Y-96457092D01*
X160036756Y-96457097D01*
X159884284Y-96622723D01*
X159884276Y-96622734D01*
X159793808Y-96761206D01*
X159740662Y-96806562D01*
X159671431Y-96815986D01*
X159608095Y-96786484D01*
X159586192Y-96761206D01*
X159528286Y-96672576D01*
X159495722Y-96622732D01*
X159495719Y-96622729D01*
X159495715Y-96622723D01*
X159343243Y-96457097D01*
X159343238Y-96457092D01*
X159165577Y-96318812D01*
X159165572Y-96318808D01*
X158967580Y-96211661D01*
X158967577Y-96211659D01*
X158967574Y-96211658D01*
X158967571Y-96211657D01*
X158967569Y-96211656D01*
X158754637Y-96138556D01*
X158532569Y-96101500D01*
X158307431Y-96101500D01*
X158085362Y-96138556D01*
X157872430Y-96211656D01*
X157872419Y-96211661D01*
X157674427Y-96318808D01*
X157674422Y-96318812D01*
X157588663Y-96385562D01*
X157523669Y-96411205D01*
X157455129Y-96397639D01*
X157404804Y-96349171D01*
X157388500Y-96287709D01*
X157388500Y-86652155D01*
X159005000Y-86652155D01*
X159005000Y-87750000D01*
X160204999Y-87750000D01*
X160179979Y-87810402D01*
X160155000Y-87935981D01*
X160155000Y-88064019D01*
X160179979Y-88189598D01*
X160204999Y-88250000D01*
X159005000Y-88250000D01*
X159005000Y-89347844D01*
X159011401Y-89407372D01*
X159011403Y-89407379D01*
X159061645Y-89542086D01*
X159061649Y-89542093D01*
X159147809Y-89657187D01*
X159147812Y-89657190D01*
X159262906Y-89743350D01*
X159262913Y-89743354D01*
X159397620Y-89793596D01*
X159397627Y-89793598D01*
X159457155Y-89799999D01*
X159457172Y-89800000D01*
X160555000Y-89800000D01*
X160555000Y-88600001D01*
X160615402Y-88625021D01*
X160740981Y-88650000D01*
X160869019Y-88650000D01*
X160994598Y-88625021D01*
X161055000Y-88600001D01*
X161055000Y-89800000D01*
X162152828Y-89800000D01*
X162152844Y-89799999D01*
X162212372Y-89793598D01*
X162212379Y-89793596D01*
X162347086Y-89743354D01*
X162347093Y-89743350D01*
X162462187Y-89657190D01*
X162462190Y-89657187D01*
X162548350Y-89542093D01*
X162548354Y-89542086D01*
X162598596Y-89407379D01*
X162598598Y-89407372D01*
X162604999Y-89347844D01*
X162605000Y-89347827D01*
X162605000Y-88250000D01*
X161405001Y-88250000D01*
X161430021Y-88189598D01*
X161455000Y-88064019D01*
X161455000Y-87935981D01*
X161430021Y-87810402D01*
X161405001Y-87750000D01*
X162605000Y-87750000D01*
X162605000Y-86652172D01*
X162604999Y-86652155D01*
X162598598Y-86592627D01*
X162598596Y-86592620D01*
X162548354Y-86457913D01*
X162548350Y-86457906D01*
X162462190Y-86342812D01*
X162462187Y-86342809D01*
X162347093Y-86256649D01*
X162347086Y-86256645D01*
X162212379Y-86206403D01*
X162212372Y-86206401D01*
X162152844Y-86200000D01*
X161055000Y-86200000D01*
X161055000Y-87399998D01*
X160994598Y-87374979D01*
X160869019Y-87350000D01*
X160740981Y-87350000D01*
X160615402Y-87374979D01*
X160555000Y-87399998D01*
X160555000Y-86200000D01*
X159457155Y-86200000D01*
X159397627Y-86206401D01*
X159397620Y-86206403D01*
X159262913Y-86256645D01*
X159262906Y-86256649D01*
X159147812Y-86342809D01*
X159147809Y-86342812D01*
X159061649Y-86457906D01*
X159061645Y-86457913D01*
X159011403Y-86592620D01*
X159011401Y-86592627D01*
X159005000Y-86652155D01*
X157388500Y-86652155D01*
X157388500Y-84632500D01*
X157408185Y-84565461D01*
X157460989Y-84519706D01*
X157512500Y-84508500D01*
X159768884Y-84508500D01*
X159835923Y-84528185D01*
X159838702Y-84530023D01*
X159898215Y-84570599D01*
X160142428Y-84688206D01*
X160401442Y-84768101D01*
X160401443Y-84768101D01*
X160401446Y-84768102D01*
X160669464Y-84808499D01*
X160669469Y-84808499D01*
X160669472Y-84808500D01*
X160669473Y-84808500D01*
X160940527Y-84808500D01*
X160940528Y-84808500D01*
X160940535Y-84808499D01*
X161208553Y-84768102D01*
X161208554Y-84768101D01*
X161208558Y-84768101D01*
X161467572Y-84688206D01*
X161711786Y-84570599D01*
X161935743Y-84417907D01*
X162134442Y-84233542D01*
X162303443Y-84021621D01*
X162438971Y-83786879D01*
X162537999Y-83534559D01*
X162598315Y-83270299D01*
X162598316Y-83270289D01*
X162618571Y-83000004D01*
X162618571Y-82999995D01*
X162598316Y-82729710D01*
X162598315Y-82729705D01*
X162598315Y-82729701D01*
X162537999Y-82465441D01*
X162438971Y-82213121D01*
X162303443Y-81978379D01*
X162134442Y-81766458D01*
X161935743Y-81582093D01*
X161711786Y-81429401D01*
X161711780Y-81429398D01*
X161711779Y-81429397D01*
X161711778Y-81429396D01*
X161467574Y-81311795D01*
X161467576Y-81311795D01*
X161208559Y-81231899D01*
X161208553Y-81231897D01*
X160940535Y-81191500D01*
X160940528Y-81191500D01*
X160669472Y-81191500D01*
X160669464Y-81191500D01*
X160401446Y-81231897D01*
X160401440Y-81231899D01*
X160142427Y-81311794D01*
X159898219Y-81429398D01*
X159898215Y-81429401D01*
X159838734Y-81469954D01*
X159772256Y-81491454D01*
X159768884Y-81491500D01*
X155861273Y-81491500D01*
X155626758Y-81528643D01*
X155400932Y-81602019D01*
X155189372Y-81709815D01*
X154997275Y-81849382D01*
X154729380Y-82117277D01*
X154688810Y-82173116D01*
X154632971Y-82249974D01*
X154611393Y-82279673D01*
X154589815Y-82309372D01*
X154482019Y-82520934D01*
X154408643Y-82746761D01*
X154408643Y-82746762D01*
X154371499Y-82981278D01*
X154371499Y-83223832D01*
X154371500Y-83223857D01*
X154371500Y-96287709D01*
X154351815Y-96354748D01*
X154299011Y-96400503D01*
X154229853Y-96410447D01*
X154171337Y-96385562D01*
X154085577Y-96318812D01*
X154085572Y-96318808D01*
X153887580Y-96211661D01*
X153887577Y-96211659D01*
X153887574Y-96211658D01*
X153887571Y-96211657D01*
X153887569Y-96211656D01*
X153674637Y-96138556D01*
X153452569Y-96101500D01*
X153227431Y-96101500D01*
X153005362Y-96138556D01*
X152792430Y-96211656D01*
X152792419Y-96211661D01*
X152594427Y-96318808D01*
X152594422Y-96318812D01*
X152508663Y-96385562D01*
X152443669Y-96411205D01*
X152375129Y-96397639D01*
X152324804Y-96349171D01*
X152308500Y-96287709D01*
X152308500Y-76876203D01*
X152328185Y-76809164D01*
X152344819Y-76788522D01*
X152645137Y-76488204D01*
X152950620Y-76182721D01*
X153090185Y-75990626D01*
X153197982Y-75779063D01*
X153271357Y-75553241D01*
X153294144Y-75409371D01*
X153308501Y-75318727D01*
X153308501Y-75169095D01*
X153328186Y-75102056D01*
X153344820Y-75081414D01*
X153381415Y-75044819D01*
X153442738Y-75011334D01*
X153469096Y-75008500D01*
X164599330Y-75008500D01*
X164599331Y-75008499D01*
X164794169Y-74969744D01*
X164977704Y-74893721D01*
X165142881Y-74783353D01*
X165283353Y-74642881D01*
X165393721Y-74477704D01*
X165469744Y-74294169D01*
X165508500Y-74099329D01*
X165508500Y-64900671D01*
X165469744Y-64705831D01*
X165409807Y-64561131D01*
X165393722Y-64522298D01*
X165393717Y-64522289D01*
X165283353Y-64357119D01*
X165283350Y-64357115D01*
X165142884Y-64216649D01*
X165142880Y-64216646D01*
X164977710Y-64106282D01*
X164977701Y-64106277D01*
X164794169Y-64030256D01*
X164794161Y-64030254D01*
X164599333Y-63991500D01*
X164599329Y-63991500D01*
X162568622Y-63991500D01*
X162501583Y-63971815D01*
X162471675Y-63944813D01*
X162438315Y-63902981D01*
X162329442Y-63766458D01*
X162130743Y-63582093D01*
X161906786Y-63429401D01*
X161906782Y-63429399D01*
X161906779Y-63429397D01*
X161906778Y-63429396D01*
X161662574Y-63311795D01*
X161662576Y-63311795D01*
X161403564Y-63231900D01*
X161403558Y-63231899D01*
X161398782Y-63231179D01*
X161335428Y-63201722D01*
X161329587Y-63196246D01*
X156694960Y-58561619D01*
X156694940Y-58561597D01*
X156522725Y-58389383D01*
X156522724Y-58389382D01*
X156522722Y-58389380D01*
X156330627Y-58249815D01*
X156119063Y-58142018D01*
X155893241Y-58068644D01*
X155893239Y-58068643D01*
X155893237Y-58068643D01*
X155729494Y-58042708D01*
X155658722Y-58031499D01*
X155421278Y-58031499D01*
X155416167Y-58031499D01*
X155416143Y-58031500D01*
X149981273Y-58031500D01*
X149746758Y-58068643D01*
X149520932Y-58142019D01*
X149309372Y-58249815D01*
X149117275Y-58389382D01*
X148949377Y-58557281D01*
X145651478Y-61855181D01*
X145590155Y-61888666D01*
X145563797Y-61891500D01*
X141566324Y-61891500D01*
X141499285Y-61871815D01*
X141467057Y-61841810D01*
X141463262Y-61836740D01*
X141397306Y-61787366D01*
X141346204Y-61749111D01*
X141209203Y-61698011D01*
X141148654Y-61691500D01*
X141148638Y-61691500D01*
X139451362Y-61691500D01*
X139451345Y-61691500D01*
X139390797Y-61698011D01*
X139390795Y-61698011D01*
X139253795Y-61749111D01*
X139136739Y-61836739D01*
X139049111Y-61953795D01*
X138998011Y-62090795D01*
X138998011Y-62090796D01*
X138996172Y-62107898D01*
X138969431Y-62172448D01*
X138912037Y-62212294D01*
X138842212Y-62214785D01*
X138782124Y-62179130D01*
X138772563Y-62167521D01*
X138758069Y-62147571D01*
X138612428Y-62001930D01*
X138612423Y-62001926D01*
X138445806Y-61880873D01*
X138445805Y-61880872D01*
X138445803Y-61880871D01*
X138369142Y-61841810D01*
X138262294Y-61787367D01*
X138066408Y-61723719D01*
X137890794Y-61695905D01*
X137862981Y-61691500D01*
X137657019Y-61691500D01*
X137632550Y-61695375D01*
X137453591Y-61723719D01*
X137257705Y-61787367D01*
X137074193Y-61880873D01*
X136907576Y-62001926D01*
X136907571Y-62001930D01*
X136761930Y-62147571D01*
X136761926Y-62147576D01*
X136702818Y-62228932D01*
X136647488Y-62271598D01*
X136577875Y-62277577D01*
X136516080Y-62244971D01*
X136481723Y-62184133D01*
X136478500Y-62156047D01*
X136478500Y-59120948D01*
X136447512Y-58925303D01*
X136447512Y-58925302D01*
X136447512Y-58925300D01*
X136427622Y-58864087D01*
X136386299Y-58736904D01*
X136296367Y-58560403D01*
X136179930Y-58400142D01*
X135919858Y-58140070D01*
X135759598Y-58023634D01*
X135583101Y-57933703D01*
X135394700Y-57872487D01*
X135199051Y-57841500D01*
X135199046Y-57841500D01*
X125300954Y-57841500D01*
X125300949Y-57841500D01*
X125105299Y-57872487D01*
X124916898Y-57933703D01*
X124740401Y-58023634D01*
X124678451Y-58068644D01*
X124580142Y-58140070D01*
X124580140Y-58140072D01*
X124580139Y-58140072D01*
X124340072Y-58380139D01*
X124340072Y-58380140D01*
X124340070Y-58380142D01*
X124318085Y-58410402D01*
X124223634Y-58540401D01*
X124133703Y-58716898D01*
X124072487Y-58905299D01*
X124041500Y-59100948D01*
X124041500Y-63537500D01*
X124021815Y-63604539D01*
X123969011Y-63650294D01*
X123917500Y-63661500D01*
X120752650Y-63661500D01*
X120685611Y-63641815D01*
X120664969Y-63625181D01*
X112799968Y-55760180D01*
X112787331Y-55745384D01*
X112739932Y-55680145D01*
X112739927Y-55680139D01*
X112599860Y-55540072D01*
X112599858Y-55540070D01*
X112439598Y-55423634D01*
X112409894Y-55408499D01*
X112263101Y-55333703D01*
X112074700Y-55272487D01*
X111879051Y-55241500D01*
X111879046Y-55241500D01*
X110572650Y-55241500D01*
X110505611Y-55221815D01*
X110484969Y-55205181D01*
X107919860Y-52640072D01*
X107919858Y-52640070D01*
X107759598Y-52523634D01*
X107717174Y-52502018D01*
X107583101Y-52433703D01*
X107394700Y-52372487D01*
X107199051Y-52341500D01*
X107199046Y-52341500D01*
X106251210Y-52341500D01*
X106184171Y-52321815D01*
X106166869Y-52308399D01*
X106030743Y-52182093D01*
X105806786Y-52029401D01*
X105806780Y-52029398D01*
X105806779Y-52029397D01*
X105806778Y-52029396D01*
X105562574Y-51911795D01*
X105562576Y-51911795D01*
X105303559Y-51831899D01*
X105303553Y-51831897D01*
X105035535Y-51791500D01*
X105035528Y-51791500D01*
X104764472Y-51791500D01*
X104764464Y-51791500D01*
X104496446Y-51831897D01*
X104496440Y-51831899D01*
X104237427Y-51911794D01*
X103993219Y-52029398D01*
X103769256Y-52182093D01*
X103570560Y-52366456D01*
X103570558Y-52366458D01*
X103401557Y-52578379D01*
X103266029Y-52813120D01*
X103167003Y-53065435D01*
X103166997Y-53065454D01*
X103106684Y-53329705D01*
X103106683Y-53329710D01*
X103086429Y-53599995D01*
X99408500Y-53599995D01*
X99408500Y-50632500D01*
X99428185Y-50565461D01*
X99480989Y-50519706D01*
X99532500Y-50508500D01*
X108423797Y-50508500D01*
X108490836Y-50528185D01*
X108511478Y-50544819D01*
X112846254Y-54879595D01*
X112846283Y-54879626D01*
X112984564Y-55017906D01*
X113017278Y-55050620D01*
X113182415Y-55170599D01*
X113182421Y-55170603D01*
X113209371Y-55190184D01*
X113420938Y-55297983D01*
X113623270Y-55363724D01*
X113646759Y-55371356D01*
X113685845Y-55377546D01*
X113881273Y-55408500D01*
X113881278Y-55408500D01*
X158923797Y-55408500D01*
X158990836Y-55428185D01*
X159011478Y-55444819D01*
X166455181Y-62888522D01*
X166488666Y-62949845D01*
X166491500Y-62976203D01*
X166491500Y-76567500D01*
X166471815Y-76634539D01*
X166419011Y-76680294D01*
X166367500Y-76691500D01*
X162102322Y-76691500D01*
X162035283Y-76671815D01*
X162017984Y-76658401D01*
X161935743Y-76582093D01*
X161711786Y-76429401D01*
X161711780Y-76429398D01*
X161711779Y-76429397D01*
X161711778Y-76429396D01*
X161467574Y-76311795D01*
X161467576Y-76311795D01*
X161208559Y-76231899D01*
X161208553Y-76231897D01*
X160940535Y-76191500D01*
X160940528Y-76191500D01*
X160669472Y-76191500D01*
X160669464Y-76191500D01*
X160401446Y-76231897D01*
X160401440Y-76231899D01*
X160142427Y-76311794D01*
X159898219Y-76429398D01*
X159674256Y-76582093D01*
X159475560Y-76766456D01*
X159475558Y-76766458D01*
X159306557Y-76978379D01*
X159171029Y-77213120D01*
X159072003Y-77465435D01*
X159071997Y-77465454D01*
X159011684Y-77729705D01*
X159011683Y-77729710D01*
X158991429Y-77999995D01*
X158991429Y-78000004D01*
X159011683Y-78270289D01*
X159011684Y-78270294D01*
X159071997Y-78534545D01*
X159071999Y-78534554D01*
X159072001Y-78534559D01*
X159171029Y-78786879D01*
X159306557Y-79021621D01*
X159475558Y-79233542D01*
X159674257Y-79417907D01*
X159898215Y-79570599D01*
X159898218Y-79570600D01*
X159898219Y-79570601D01*
X159904854Y-79573796D01*
X160142428Y-79688206D01*
X160401442Y-79768101D01*
X160401443Y-79768101D01*
X160401446Y-79768102D01*
X160669464Y-79808499D01*
X160669469Y-79808499D01*
X160669472Y-79808500D01*
X160669473Y-79808500D01*
X160940527Y-79808500D01*
X160940528Y-79808500D01*
X160940535Y-79808499D01*
X161208553Y-79768102D01*
X161208554Y-79768101D01*
X161208558Y-79768101D01*
X161383920Y-79714008D01*
X161420470Y-79708500D01*
X167776143Y-79708500D01*
X167776167Y-79708501D01*
X167781278Y-79708501D01*
X168018721Y-79708501D01*
X168018722Y-79708501D01*
X168253241Y-79671356D01*
X168479063Y-79597982D01*
X168690627Y-79490185D01*
X168717546Y-79470627D01*
X168882722Y-79350620D01*
X169050620Y-79182722D01*
X169050621Y-79182721D01*
X169150620Y-79082722D01*
X169290185Y-78890627D01*
X169397982Y-78679063D01*
X169471356Y-78453241D01*
X169472623Y-78445244D01*
X169508500Y-78218725D01*
X169508500Y-62423857D01*
X169508501Y-62423832D01*
X169508501Y-62181278D01*
X169494170Y-62090796D01*
X169471356Y-61946759D01*
X169397982Y-61720937D01*
X169290185Y-61509373D01*
X169150620Y-61317278D01*
X169150616Y-61317274D01*
X168979626Y-61146283D01*
X168979595Y-61146254D01*
X160754960Y-52921619D01*
X160754940Y-52921597D01*
X160582725Y-52749383D01*
X160582724Y-52749382D01*
X160582722Y-52749380D01*
X160390627Y-52609815D01*
X160179063Y-52502018D01*
X159953241Y-52428644D01*
X159953239Y-52428643D01*
X159953237Y-52428643D01*
X159789494Y-52402708D01*
X159718722Y-52391499D01*
X159481278Y-52391499D01*
X159476167Y-52391499D01*
X159476143Y-52391500D01*
X114676203Y-52391500D01*
X114609164Y-52371815D01*
X114588522Y-52355181D01*
X110534686Y-48301345D01*
X117437500Y-48301345D01*
X117437500Y-50098654D01*
X117444011Y-50159202D01*
X117444011Y-50159204D01*
X117495111Y-50296204D01*
X117582739Y-50413261D01*
X117699796Y-50500889D01*
X117836799Y-50551989D01*
X117864050Y-50554918D01*
X117897345Y-50558499D01*
X117897362Y-50558500D01*
X119694638Y-50558500D01*
X119694654Y-50558499D01*
X119721692Y-50555591D01*
X119755201Y-50551989D01*
X119892204Y-50500889D01*
X120009261Y-50413261D01*
X120096889Y-50296204D01*
X120142138Y-50174887D01*
X120184009Y-50118956D01*
X120249474Y-50094539D01*
X120317746Y-50109391D01*
X120349545Y-50134236D01*
X120412760Y-50202906D01*
X120590424Y-50341189D01*
X120590425Y-50341189D01*
X120590427Y-50341191D01*
X120650314Y-50373600D01*
X120788426Y-50448342D01*
X121001365Y-50521444D01*
X121223431Y-50558500D01*
X121448569Y-50558500D01*
X121670635Y-50521444D01*
X121883574Y-50448342D01*
X122081576Y-50341189D01*
X122259240Y-50202906D01*
X122380594Y-50071082D01*
X122411715Y-50037276D01*
X122411715Y-50037275D01*
X122411722Y-50037268D01*
X122502193Y-49898790D01*
X122555338Y-49853437D01*
X122624569Y-49844013D01*
X122687905Y-49873515D01*
X122709804Y-49898787D01*
X122800278Y-50037268D01*
X122800283Y-50037273D01*
X122800284Y-50037276D01*
X122926968Y-50174889D01*
X122952760Y-50202906D01*
X123130424Y-50341189D01*
X123130425Y-50341189D01*
X123130427Y-50341191D01*
X123190314Y-50373600D01*
X123328426Y-50448342D01*
X123541365Y-50521444D01*
X123763431Y-50558500D01*
X123988569Y-50558500D01*
X124210635Y-50521444D01*
X124423574Y-50448342D01*
X124621576Y-50341189D01*
X124799240Y-50202906D01*
X124920594Y-50071082D01*
X124951715Y-50037276D01*
X124951715Y-50037275D01*
X124951722Y-50037268D01*
X125045749Y-49893347D01*
X125098894Y-49847994D01*
X125168125Y-49838570D01*
X125231461Y-49868072D01*
X125251130Y-49890048D01*
X125377890Y-50071078D01*
X125544917Y-50238105D01*
X125738421Y-50373600D01*
X125952507Y-50473429D01*
X125952516Y-50473433D01*
X126166000Y-50530634D01*
X126166000Y-49633012D01*
X126223007Y-49665925D01*
X126350174Y-49700000D01*
X126481826Y-49700000D01*
X126608993Y-49665925D01*
X126666000Y-49633012D01*
X126666000Y-50530633D01*
X126879483Y-50473433D01*
X126879492Y-50473429D01*
X127093578Y-50373600D01*
X127287082Y-50238105D01*
X127454105Y-50071082D01*
X127580868Y-49890048D01*
X127635445Y-49846423D01*
X127704944Y-49839231D01*
X127767298Y-49870753D01*
X127786251Y-49893350D01*
X127880276Y-50037265D01*
X127880284Y-50037276D01*
X128006968Y-50174889D01*
X128032760Y-50202906D01*
X128210424Y-50341189D01*
X128210425Y-50341189D01*
X128210427Y-50341191D01*
X128270314Y-50373600D01*
X128408426Y-50448342D01*
X128621365Y-50521444D01*
X128843431Y-50558500D01*
X129068569Y-50558500D01*
X129290635Y-50521444D01*
X129503574Y-50448342D01*
X129701576Y-50341189D01*
X129879240Y-50202906D01*
X130000594Y-50071082D01*
X130031715Y-50037276D01*
X130031715Y-50037275D01*
X130031722Y-50037268D01*
X130122193Y-49898790D01*
X130175338Y-49853437D01*
X130244569Y-49844013D01*
X130307905Y-49873515D01*
X130329804Y-49898787D01*
X130420278Y-50037268D01*
X130420283Y-50037273D01*
X130420284Y-50037276D01*
X130546968Y-50174889D01*
X130572760Y-50202906D01*
X130750424Y-50341189D01*
X130750425Y-50341189D01*
X130750427Y-50341191D01*
X130810314Y-50373600D01*
X130948426Y-50448342D01*
X131161365Y-50521444D01*
X131383431Y-50558500D01*
X131608569Y-50558500D01*
X131830635Y-50521444D01*
X132043574Y-50448342D01*
X132241576Y-50341189D01*
X132419240Y-50202906D01*
X132540594Y-50071082D01*
X132571715Y-50037276D01*
X132571715Y-50037275D01*
X132571722Y-50037268D01*
X132662193Y-49898790D01*
X132715338Y-49853437D01*
X132784569Y-49844013D01*
X132847905Y-49873515D01*
X132869804Y-49898787D01*
X132960278Y-50037268D01*
X132960283Y-50037273D01*
X132960284Y-50037276D01*
X133086968Y-50174889D01*
X133112760Y-50202906D01*
X133290424Y-50341189D01*
X133290425Y-50341189D01*
X133290427Y-50341191D01*
X133350314Y-50373600D01*
X133488426Y-50448342D01*
X133701365Y-50521444D01*
X133923431Y-50558500D01*
X134148569Y-50558500D01*
X134370635Y-50521444D01*
X134583574Y-50448342D01*
X134781576Y-50341189D01*
X134959240Y-50202906D01*
X135080594Y-50071082D01*
X135111715Y-50037276D01*
X135111715Y-50037275D01*
X135111722Y-50037268D01*
X135202193Y-49898790D01*
X135255338Y-49853437D01*
X135324569Y-49844013D01*
X135387905Y-49873515D01*
X135409804Y-49898787D01*
X135500278Y-50037268D01*
X135500283Y-50037273D01*
X135500284Y-50037276D01*
X135626968Y-50174889D01*
X135652760Y-50202906D01*
X135830424Y-50341189D01*
X135830425Y-50341189D01*
X135830427Y-50341191D01*
X135890314Y-50373600D01*
X136028426Y-50448342D01*
X136241365Y-50521444D01*
X136463431Y-50558500D01*
X136688569Y-50558500D01*
X136910635Y-50521444D01*
X137123574Y-50448342D01*
X137321576Y-50341189D01*
X137499240Y-50202906D01*
X137620594Y-50071082D01*
X137651715Y-50037276D01*
X137651715Y-50037275D01*
X137651722Y-50037268D01*
X137742193Y-49898790D01*
X137795338Y-49853437D01*
X137864569Y-49844013D01*
X137927905Y-49873515D01*
X137949804Y-49898787D01*
X138040278Y-50037268D01*
X138040283Y-50037273D01*
X138040284Y-50037276D01*
X138166968Y-50174889D01*
X138192760Y-50202906D01*
X138370424Y-50341189D01*
X138370425Y-50341189D01*
X138370427Y-50341191D01*
X138430314Y-50373600D01*
X138568426Y-50448342D01*
X138781365Y-50521444D01*
X139003431Y-50558500D01*
X139228569Y-50558500D01*
X139450635Y-50521444D01*
X139663574Y-50448342D01*
X139861576Y-50341189D01*
X140039240Y-50202906D01*
X140160594Y-50071082D01*
X140191715Y-50037276D01*
X140191715Y-50037275D01*
X140191722Y-50037268D01*
X140282193Y-49898790D01*
X140335338Y-49853437D01*
X140404569Y-49844013D01*
X140467905Y-49873515D01*
X140489804Y-49898787D01*
X140580278Y-50037268D01*
X140580283Y-50037273D01*
X140580284Y-50037276D01*
X140706968Y-50174889D01*
X140732760Y-50202906D01*
X140910424Y-50341189D01*
X140910425Y-50341189D01*
X140910427Y-50341191D01*
X140970314Y-50373600D01*
X141108426Y-50448342D01*
X141321365Y-50521444D01*
X141543431Y-50558500D01*
X141768569Y-50558500D01*
X141990635Y-50521444D01*
X142203574Y-50448342D01*
X142401576Y-50341189D01*
X142579240Y-50202906D01*
X142700594Y-50071082D01*
X142731715Y-50037276D01*
X142731717Y-50037273D01*
X142731722Y-50037268D01*
X142854860Y-49848791D01*
X142945296Y-49642616D01*
X143000564Y-49424368D01*
X143000565Y-49424359D01*
X143019156Y-49200005D01*
X143019156Y-49199994D01*
X143000565Y-48975640D01*
X143000563Y-48975628D01*
X142945296Y-48757385D01*
X142935071Y-48734075D01*
X142854860Y-48551209D01*
X142838706Y-48526484D01*
X142731723Y-48362734D01*
X142731715Y-48362723D01*
X142675212Y-48301345D01*
X144361500Y-48301345D01*
X144361500Y-50098654D01*
X144368011Y-50159202D01*
X144368011Y-50159204D01*
X144419111Y-50296204D01*
X144506739Y-50413261D01*
X144623796Y-50500889D01*
X144760799Y-50551989D01*
X144788050Y-50554918D01*
X144821345Y-50558499D01*
X144821362Y-50558500D01*
X146618638Y-50558500D01*
X146618654Y-50558499D01*
X146645692Y-50555591D01*
X146679201Y-50551989D01*
X146816204Y-50500889D01*
X146933261Y-50413261D01*
X147020889Y-50296204D01*
X147066138Y-50174887D01*
X147108009Y-50118956D01*
X147173474Y-50094539D01*
X147241746Y-50109391D01*
X147273545Y-50134236D01*
X147336760Y-50202906D01*
X147514424Y-50341189D01*
X147514425Y-50341189D01*
X147514427Y-50341191D01*
X147574314Y-50373600D01*
X147712426Y-50448342D01*
X147925365Y-50521444D01*
X148147431Y-50558500D01*
X148372569Y-50558500D01*
X148594635Y-50521444D01*
X148807574Y-50448342D01*
X149005576Y-50341189D01*
X149183240Y-50202906D01*
X149304594Y-50071082D01*
X149335715Y-50037276D01*
X149335715Y-50037275D01*
X149335722Y-50037268D01*
X149426193Y-49898790D01*
X149479338Y-49853437D01*
X149548569Y-49844013D01*
X149611905Y-49873515D01*
X149633804Y-49898787D01*
X149724278Y-50037268D01*
X149724283Y-50037273D01*
X149724284Y-50037276D01*
X149850968Y-50174889D01*
X149876760Y-50202906D01*
X150054424Y-50341189D01*
X150054425Y-50341189D01*
X150054427Y-50341191D01*
X150114314Y-50373600D01*
X150252426Y-50448342D01*
X150465365Y-50521444D01*
X150687431Y-50558500D01*
X150912569Y-50558500D01*
X151134635Y-50521444D01*
X151347574Y-50448342D01*
X151545576Y-50341189D01*
X151723240Y-50202906D01*
X151844594Y-50071082D01*
X151875715Y-50037276D01*
X151875715Y-50037275D01*
X151875722Y-50037268D01*
X151966193Y-49898790D01*
X152019338Y-49853437D01*
X152088569Y-49844013D01*
X152151905Y-49873515D01*
X152173804Y-49898787D01*
X152264278Y-50037268D01*
X152264283Y-50037273D01*
X152264284Y-50037276D01*
X152390968Y-50174889D01*
X152416760Y-50202906D01*
X152594424Y-50341189D01*
X152594425Y-50341189D01*
X152594427Y-50341191D01*
X152654314Y-50373600D01*
X152792426Y-50448342D01*
X153005365Y-50521444D01*
X153227431Y-50558500D01*
X153452569Y-50558500D01*
X153674635Y-50521444D01*
X153887574Y-50448342D01*
X154085576Y-50341189D01*
X154263240Y-50202906D01*
X154384594Y-50071082D01*
X154415715Y-50037276D01*
X154415715Y-50037275D01*
X154415722Y-50037268D01*
X154506193Y-49898790D01*
X154559338Y-49853437D01*
X154628569Y-49844013D01*
X154691905Y-49873515D01*
X154713804Y-49898787D01*
X154804278Y-50037268D01*
X154804283Y-50037273D01*
X154804284Y-50037276D01*
X154930968Y-50174889D01*
X154956760Y-50202906D01*
X155134424Y-50341189D01*
X155134425Y-50341189D01*
X155134427Y-50341191D01*
X155194314Y-50373600D01*
X155332426Y-50448342D01*
X155545365Y-50521444D01*
X155767431Y-50558500D01*
X155992569Y-50558500D01*
X156214635Y-50521444D01*
X156427574Y-50448342D01*
X156625576Y-50341189D01*
X156803240Y-50202906D01*
X156924594Y-50071082D01*
X156955715Y-50037276D01*
X156955715Y-50037275D01*
X156955722Y-50037268D01*
X157046193Y-49898790D01*
X157099338Y-49853437D01*
X157168569Y-49844013D01*
X157231905Y-49873515D01*
X157253804Y-49898787D01*
X157344278Y-50037268D01*
X157344283Y-50037273D01*
X157344284Y-50037276D01*
X157470968Y-50174889D01*
X157496760Y-50202906D01*
X157674424Y-50341189D01*
X157674425Y-50341189D01*
X157674427Y-50341191D01*
X157734314Y-50373600D01*
X157872426Y-50448342D01*
X158085365Y-50521444D01*
X158307431Y-50558500D01*
X158532569Y-50558500D01*
X158754635Y-50521444D01*
X158967574Y-50448342D01*
X159165576Y-50341189D01*
X159343240Y-50202906D01*
X159464594Y-50071082D01*
X159495715Y-50037276D01*
X159495715Y-50037275D01*
X159495722Y-50037268D01*
X159586193Y-49898790D01*
X159639338Y-49853437D01*
X159708569Y-49844013D01*
X159771905Y-49873515D01*
X159793804Y-49898787D01*
X159884278Y-50037268D01*
X159884283Y-50037273D01*
X159884284Y-50037276D01*
X160010968Y-50174889D01*
X160036760Y-50202906D01*
X160214424Y-50341189D01*
X160214425Y-50341189D01*
X160214427Y-50341191D01*
X160274314Y-50373600D01*
X160412426Y-50448342D01*
X160625365Y-50521444D01*
X160847431Y-50558500D01*
X161072569Y-50558500D01*
X161294635Y-50521444D01*
X161507574Y-50448342D01*
X161705576Y-50341189D01*
X161883240Y-50202906D01*
X162004594Y-50071082D01*
X162035715Y-50037276D01*
X162035715Y-50037275D01*
X162035722Y-50037268D01*
X162126193Y-49898790D01*
X162179338Y-49853437D01*
X162248569Y-49844013D01*
X162311905Y-49873515D01*
X162333804Y-49898787D01*
X162424278Y-50037268D01*
X162424283Y-50037273D01*
X162424284Y-50037276D01*
X162550968Y-50174889D01*
X162576760Y-50202906D01*
X162754424Y-50341189D01*
X162754425Y-50341189D01*
X162754427Y-50341191D01*
X162814314Y-50373600D01*
X162952426Y-50448342D01*
X163165365Y-50521444D01*
X163387431Y-50558500D01*
X163612569Y-50558500D01*
X163834635Y-50521444D01*
X164047574Y-50448342D01*
X164245576Y-50341189D01*
X164423240Y-50202906D01*
X164544594Y-50071082D01*
X164575715Y-50037276D01*
X164575717Y-50037273D01*
X164575722Y-50037268D01*
X164698860Y-49848791D01*
X164789296Y-49642616D01*
X164844564Y-49424368D01*
X164844565Y-49424359D01*
X164863156Y-49200005D01*
X164863156Y-49199994D01*
X164844565Y-48975640D01*
X164844563Y-48975628D01*
X164789296Y-48757385D01*
X164779071Y-48734075D01*
X164698860Y-48551209D01*
X164682706Y-48526484D01*
X164575723Y-48362734D01*
X164575715Y-48362723D01*
X164423243Y-48197097D01*
X164423238Y-48197092D01*
X164245577Y-48058812D01*
X164245572Y-48058808D01*
X164047580Y-47951661D01*
X164047577Y-47951659D01*
X164047574Y-47951658D01*
X164047571Y-47951657D01*
X164047569Y-47951656D01*
X163834637Y-47878556D01*
X163612569Y-47841500D01*
X163387431Y-47841500D01*
X163165362Y-47878556D01*
X162952430Y-47951656D01*
X162952419Y-47951661D01*
X162754427Y-48058808D01*
X162754422Y-48058812D01*
X162576761Y-48197092D01*
X162576756Y-48197097D01*
X162424284Y-48362723D01*
X162424276Y-48362734D01*
X162333808Y-48501206D01*
X162280662Y-48546562D01*
X162211431Y-48555986D01*
X162148095Y-48526484D01*
X162126192Y-48501206D01*
X162035723Y-48362734D01*
X162035715Y-48362723D01*
X161883243Y-48197097D01*
X161883238Y-48197092D01*
X161705577Y-48058812D01*
X161705572Y-48058808D01*
X161507580Y-47951661D01*
X161507577Y-47951659D01*
X161507574Y-47951658D01*
X161507571Y-47951657D01*
X161507569Y-47951656D01*
X161294637Y-47878556D01*
X161072569Y-47841500D01*
X160847431Y-47841500D01*
X160625362Y-47878556D01*
X160412430Y-47951656D01*
X160412419Y-47951661D01*
X160214427Y-48058808D01*
X160214422Y-48058812D01*
X160036761Y-48197092D01*
X160036756Y-48197097D01*
X159884284Y-48362723D01*
X159884276Y-48362734D01*
X159793808Y-48501206D01*
X159740662Y-48546562D01*
X159671431Y-48555986D01*
X159608095Y-48526484D01*
X159586192Y-48501206D01*
X159495723Y-48362734D01*
X159495715Y-48362723D01*
X159343243Y-48197097D01*
X159343238Y-48197092D01*
X159165577Y-48058812D01*
X159165572Y-48058808D01*
X158967580Y-47951661D01*
X158967577Y-47951659D01*
X158967574Y-47951658D01*
X158967571Y-47951657D01*
X158967569Y-47951656D01*
X158754637Y-47878556D01*
X158532569Y-47841500D01*
X158307431Y-47841500D01*
X158085362Y-47878556D01*
X157872430Y-47951656D01*
X157872419Y-47951661D01*
X157674427Y-48058808D01*
X157674422Y-48058812D01*
X157496761Y-48197092D01*
X157496756Y-48197097D01*
X157344284Y-48362723D01*
X157344276Y-48362734D01*
X157253808Y-48501206D01*
X157200662Y-48546562D01*
X157131431Y-48555986D01*
X157068095Y-48526484D01*
X157046192Y-48501206D01*
X156955723Y-48362734D01*
X156955715Y-48362723D01*
X156803243Y-48197097D01*
X156803238Y-48197092D01*
X156625577Y-48058812D01*
X156625572Y-48058808D01*
X156427580Y-47951661D01*
X156427577Y-47951659D01*
X156427574Y-47951658D01*
X156427571Y-47951657D01*
X156427569Y-47951656D01*
X156214637Y-47878556D01*
X155992569Y-47841500D01*
X155767431Y-47841500D01*
X155545362Y-47878556D01*
X155332430Y-47951656D01*
X155332419Y-47951661D01*
X155134427Y-48058808D01*
X155134422Y-48058812D01*
X154956761Y-48197092D01*
X154956756Y-48197097D01*
X154804284Y-48362723D01*
X154804276Y-48362734D01*
X154713808Y-48501206D01*
X154660662Y-48546562D01*
X154591431Y-48555986D01*
X154528095Y-48526484D01*
X154506192Y-48501206D01*
X154415723Y-48362734D01*
X154415715Y-48362723D01*
X154263243Y-48197097D01*
X154263238Y-48197092D01*
X154085577Y-48058812D01*
X154085572Y-48058808D01*
X153887580Y-47951661D01*
X153887577Y-47951659D01*
X153887574Y-47951658D01*
X153887571Y-47951657D01*
X153887569Y-47951656D01*
X153674637Y-47878556D01*
X153452569Y-47841500D01*
X153227431Y-47841500D01*
X153005362Y-47878556D01*
X152792430Y-47951656D01*
X152792419Y-47951661D01*
X152594427Y-48058808D01*
X152594422Y-48058812D01*
X152416761Y-48197092D01*
X152416756Y-48197097D01*
X152264284Y-48362723D01*
X152264276Y-48362734D01*
X152173808Y-48501206D01*
X152120662Y-48546562D01*
X152051431Y-48555986D01*
X151988095Y-48526484D01*
X151966192Y-48501206D01*
X151875723Y-48362734D01*
X151875715Y-48362723D01*
X151723243Y-48197097D01*
X151723238Y-48197092D01*
X151545577Y-48058812D01*
X151545572Y-48058808D01*
X151347580Y-47951661D01*
X151347577Y-47951659D01*
X151347574Y-47951658D01*
X151347571Y-47951657D01*
X151347569Y-47951656D01*
X151134637Y-47878556D01*
X150912569Y-47841500D01*
X150687431Y-47841500D01*
X150465362Y-47878556D01*
X150252430Y-47951656D01*
X150252419Y-47951661D01*
X150054427Y-48058808D01*
X150054422Y-48058812D01*
X149876761Y-48197092D01*
X149876756Y-48197097D01*
X149724284Y-48362723D01*
X149724276Y-48362734D01*
X149633808Y-48501206D01*
X149580662Y-48546562D01*
X149511431Y-48555986D01*
X149448095Y-48526484D01*
X149426192Y-48501206D01*
X149335723Y-48362734D01*
X149335715Y-48362723D01*
X149183243Y-48197097D01*
X149183238Y-48197092D01*
X149005577Y-48058812D01*
X149005572Y-48058808D01*
X148807580Y-47951661D01*
X148807577Y-47951659D01*
X148807574Y-47951658D01*
X148807571Y-47951657D01*
X148807569Y-47951656D01*
X148594637Y-47878556D01*
X148372569Y-47841500D01*
X148147431Y-47841500D01*
X147925362Y-47878556D01*
X147712430Y-47951656D01*
X147712419Y-47951661D01*
X147514427Y-48058808D01*
X147514422Y-48058812D01*
X147336761Y-48197092D01*
X147273548Y-48265760D01*
X147213661Y-48301750D01*
X147143823Y-48299649D01*
X147086207Y-48260124D01*
X147066138Y-48225110D01*
X147020889Y-48103796D01*
X146987214Y-48058812D01*
X146933261Y-47986739D01*
X146816204Y-47899111D01*
X146679203Y-47848011D01*
X146618654Y-47841500D01*
X146618638Y-47841500D01*
X144821362Y-47841500D01*
X144821345Y-47841500D01*
X144760797Y-47848011D01*
X144760795Y-47848011D01*
X144623795Y-47899111D01*
X144506739Y-47986739D01*
X144419111Y-48103795D01*
X144368011Y-48240795D01*
X144368011Y-48240797D01*
X144361500Y-48301345D01*
X142675212Y-48301345D01*
X142579243Y-48197097D01*
X142579238Y-48197092D01*
X142401577Y-48058812D01*
X142401572Y-48058808D01*
X142203580Y-47951661D01*
X142203577Y-47951659D01*
X142203574Y-47951658D01*
X142203571Y-47951657D01*
X142203569Y-47951656D01*
X141990637Y-47878556D01*
X141768569Y-47841500D01*
X141543431Y-47841500D01*
X141321362Y-47878556D01*
X141108430Y-47951656D01*
X141108419Y-47951661D01*
X140910427Y-48058808D01*
X140910422Y-48058812D01*
X140732761Y-48197092D01*
X140732756Y-48197097D01*
X140580284Y-48362723D01*
X140580276Y-48362734D01*
X140489808Y-48501206D01*
X140436662Y-48546562D01*
X140367431Y-48555986D01*
X140304095Y-48526484D01*
X140282192Y-48501206D01*
X140191723Y-48362734D01*
X140191715Y-48362723D01*
X140039243Y-48197097D01*
X140039238Y-48197092D01*
X139861577Y-48058812D01*
X139861572Y-48058808D01*
X139663580Y-47951661D01*
X139663577Y-47951659D01*
X139663574Y-47951658D01*
X139663571Y-47951657D01*
X139663569Y-47951656D01*
X139450637Y-47878556D01*
X139228569Y-47841500D01*
X139003431Y-47841500D01*
X138781362Y-47878556D01*
X138568430Y-47951656D01*
X138568419Y-47951661D01*
X138370427Y-48058808D01*
X138370422Y-48058812D01*
X138192761Y-48197092D01*
X138192756Y-48197097D01*
X138040284Y-48362723D01*
X138040276Y-48362734D01*
X137949808Y-48501206D01*
X137896662Y-48546562D01*
X137827431Y-48555986D01*
X137764095Y-48526484D01*
X137742192Y-48501206D01*
X137651723Y-48362734D01*
X137651715Y-48362723D01*
X137499243Y-48197097D01*
X137499238Y-48197092D01*
X137321577Y-48058812D01*
X137321572Y-48058808D01*
X137123580Y-47951661D01*
X137123577Y-47951659D01*
X137123574Y-47951658D01*
X137123571Y-47951657D01*
X137123569Y-47951656D01*
X136910637Y-47878556D01*
X136688569Y-47841500D01*
X136463431Y-47841500D01*
X136241362Y-47878556D01*
X136028430Y-47951656D01*
X136028419Y-47951661D01*
X135830427Y-48058808D01*
X135830422Y-48058812D01*
X135652761Y-48197092D01*
X135652756Y-48197097D01*
X135500284Y-48362723D01*
X135500276Y-48362734D01*
X135409808Y-48501206D01*
X135356662Y-48546562D01*
X135287431Y-48555986D01*
X135224095Y-48526484D01*
X135202192Y-48501206D01*
X135111723Y-48362734D01*
X135111715Y-48362723D01*
X134959243Y-48197097D01*
X134959238Y-48197092D01*
X134781577Y-48058812D01*
X134781572Y-48058808D01*
X134583580Y-47951661D01*
X134583577Y-47951659D01*
X134583574Y-47951658D01*
X134583571Y-47951657D01*
X134583569Y-47951656D01*
X134370637Y-47878556D01*
X134148569Y-47841500D01*
X133923431Y-47841500D01*
X133701362Y-47878556D01*
X133488430Y-47951656D01*
X133488419Y-47951661D01*
X133290427Y-48058808D01*
X133290422Y-48058812D01*
X133112761Y-48197092D01*
X133112756Y-48197097D01*
X132960284Y-48362723D01*
X132960276Y-48362734D01*
X132869808Y-48501206D01*
X132816662Y-48546562D01*
X132747431Y-48555986D01*
X132684095Y-48526484D01*
X132662192Y-48501206D01*
X132571723Y-48362734D01*
X132571715Y-48362723D01*
X132419243Y-48197097D01*
X132419238Y-48197092D01*
X132241577Y-48058812D01*
X132241572Y-48058808D01*
X132043580Y-47951661D01*
X132043577Y-47951659D01*
X132043574Y-47951658D01*
X132043571Y-47951657D01*
X132043569Y-47951656D01*
X131830637Y-47878556D01*
X131608569Y-47841500D01*
X131383431Y-47841500D01*
X131161362Y-47878556D01*
X130948430Y-47951656D01*
X130948419Y-47951661D01*
X130750427Y-48058808D01*
X130750422Y-48058812D01*
X130572761Y-48197092D01*
X130572756Y-48197097D01*
X130420284Y-48362723D01*
X130420276Y-48362734D01*
X130329808Y-48501206D01*
X130276662Y-48546562D01*
X130207431Y-48555986D01*
X130144095Y-48526484D01*
X130122192Y-48501206D01*
X130031723Y-48362734D01*
X130031715Y-48362723D01*
X129879243Y-48197097D01*
X129879238Y-48197092D01*
X129701577Y-48058812D01*
X129701572Y-48058808D01*
X129503580Y-47951661D01*
X129503577Y-47951659D01*
X129503574Y-47951658D01*
X129503571Y-47951657D01*
X129503569Y-47951656D01*
X129290637Y-47878556D01*
X129068569Y-47841500D01*
X128843431Y-47841500D01*
X128621362Y-47878556D01*
X128408430Y-47951656D01*
X128408419Y-47951661D01*
X128210427Y-48058808D01*
X128210422Y-48058812D01*
X128032761Y-48197092D01*
X128032756Y-48197097D01*
X127880284Y-48362723D01*
X127880276Y-48362734D01*
X127786251Y-48506650D01*
X127733105Y-48552007D01*
X127663873Y-48561430D01*
X127600538Y-48531928D01*
X127580868Y-48509951D01*
X127454113Y-48328926D01*
X127454108Y-48328920D01*
X127287082Y-48161894D01*
X127093578Y-48026399D01*
X126879492Y-47926570D01*
X126879486Y-47926567D01*
X126666000Y-47869364D01*
X126666000Y-48766988D01*
X126608993Y-48734075D01*
X126481826Y-48700000D01*
X126350174Y-48700000D01*
X126223007Y-48734075D01*
X126166000Y-48766988D01*
X126166000Y-47869364D01*
X126165999Y-47869364D01*
X125952513Y-47926567D01*
X125952507Y-47926570D01*
X125738422Y-48026399D01*
X125738420Y-48026400D01*
X125544926Y-48161886D01*
X125544920Y-48161891D01*
X125377891Y-48328920D01*
X125377890Y-48328922D01*
X125251131Y-48509952D01*
X125196554Y-48553577D01*
X125127055Y-48560769D01*
X125064701Y-48529247D01*
X125045752Y-48506656D01*
X124951722Y-48362732D01*
X124951715Y-48362725D01*
X124951715Y-48362723D01*
X124799243Y-48197097D01*
X124799238Y-48197092D01*
X124621577Y-48058812D01*
X124621572Y-48058808D01*
X124423580Y-47951661D01*
X124423577Y-47951659D01*
X124423574Y-47951658D01*
X124423571Y-47951657D01*
X124423569Y-47951656D01*
X124210637Y-47878556D01*
X123988569Y-47841500D01*
X123763431Y-47841500D01*
X123541362Y-47878556D01*
X123328430Y-47951656D01*
X123328419Y-47951661D01*
X123130427Y-48058808D01*
X123130422Y-48058812D01*
X122952761Y-48197092D01*
X122952756Y-48197097D01*
X122800284Y-48362723D01*
X122800276Y-48362734D01*
X122709808Y-48501206D01*
X122656662Y-48546562D01*
X122587431Y-48555986D01*
X122524095Y-48526484D01*
X122502192Y-48501206D01*
X122411723Y-48362734D01*
X122411715Y-48362723D01*
X122259243Y-48197097D01*
X122259238Y-48197092D01*
X122081577Y-48058812D01*
X122081572Y-48058808D01*
X121883580Y-47951661D01*
X121883577Y-47951659D01*
X121883574Y-47951658D01*
X121883571Y-47951657D01*
X121883569Y-47951656D01*
X121670637Y-47878556D01*
X121448569Y-47841500D01*
X121223431Y-47841500D01*
X121001362Y-47878556D01*
X120788430Y-47951656D01*
X120788419Y-47951661D01*
X120590427Y-48058808D01*
X120590422Y-48058812D01*
X120412761Y-48197092D01*
X120349548Y-48265760D01*
X120289661Y-48301750D01*
X120219823Y-48299649D01*
X120162207Y-48260124D01*
X120142138Y-48225110D01*
X120096889Y-48103796D01*
X120063214Y-48058812D01*
X120009261Y-47986739D01*
X119892204Y-47899111D01*
X119755203Y-47848011D01*
X119694654Y-47841500D01*
X119694638Y-47841500D01*
X117897362Y-47841500D01*
X117897345Y-47841500D01*
X117836797Y-47848011D01*
X117836795Y-47848011D01*
X117699795Y-47899111D01*
X117582739Y-47986739D01*
X117495111Y-48103795D01*
X117444011Y-48240795D01*
X117444011Y-48240797D01*
X117437500Y-48301345D01*
X110534686Y-48301345D01*
X110254960Y-48021619D01*
X110254940Y-48021597D01*
X110082725Y-47849383D01*
X110082724Y-47849382D01*
X110082722Y-47849380D01*
X109890627Y-47709815D01*
X109679063Y-47602018D01*
X109453241Y-47528644D01*
X109453239Y-47528643D01*
X109453237Y-47528643D01*
X109238275Y-47494596D01*
X109218722Y-47491499D01*
X108981278Y-47491499D01*
X108976167Y-47491499D01*
X108976143Y-47491500D01*
X98323857Y-47491500D01*
X98323833Y-47491499D01*
X98318722Y-47491499D01*
X98081278Y-47491499D01*
X98061725Y-47494596D01*
X97846762Y-47528643D01*
X97846761Y-47528643D01*
X97620934Y-47602019D01*
X97409372Y-47709815D01*
X97217275Y-47849382D01*
X96749382Y-48317275D01*
X96609815Y-48509372D01*
X96502019Y-48720934D01*
X96428643Y-48946761D01*
X96428643Y-48946762D01*
X96391499Y-49181278D01*
X95675500Y-49181278D01*
X95675500Y-47532714D01*
X95686692Y-47494596D01*
X95682430Y-47493211D01*
X95688498Y-47474532D01*
X95688500Y-47474531D01*
X95688500Y-47456092D01*
X95689097Y-47443938D01*
X95696624Y-47367513D01*
X95700494Y-47328220D01*
X95705234Y-47304389D01*
X95737216Y-47198959D01*
X95746508Y-47176526D01*
X95798442Y-47079365D01*
X95811938Y-47059166D01*
X95881827Y-46974006D01*
X95899006Y-46956827D01*
X95984166Y-46886938D01*
X96004365Y-46873442D01*
X96101526Y-46821508D01*
X96123959Y-46812216D01*
X96229389Y-46780234D01*
X96253220Y-46775494D01*
X96368939Y-46764097D01*
X96381093Y-46763500D01*
X96420258Y-46763500D01*
X96420371Y-46763480D01*
X163417348Y-46735534D01*
X163484395Y-46755191D01*
G37*
%TD.AperFunction*%
%TD*%
M02*
