M48
; DRILL file {KiCad 8.0.6} date 2024-12-17T14:45:53+0100
; FORMAT={-:-/ absolute / metric / decimal}
; #@! TF.CreationDate,2024-12-17T14:45:53+01:00
; #@! TF.GenerationSoftware,Kicad,Pcbnew,8.0.6
; #@! TF.FileFunction,MixedPlating,1,2
FMAT,2
METRIC
; #@! TA.AperFunction,Plated,PTH,ComponentDrill
T1C0.800
; #@! TA.AperFunction,Plated,PTH,ComponentDrill
T2C1.000
; #@! TA.AperFunction,Plated,PTH,ComponentDrill
T3C1.300
; #@! TA.AperFunction,NonPlated,NPTH,ComponentDrill
T4C3.200
%
G90
G05
T1
X120.2Y-64.94
X120.2Y-75.1
X125.3Y-64.92
X125.3Y-75.08
X132.68Y-63.4
X132.68Y-71.02
X135.22Y-63.4
X135.22Y-71.02
X137.76Y-63.4
X137.76Y-71.02
X140.3Y-63.4
X140.3Y-71.02
X146.1Y-67.24
X146.1Y-77.4
X150.1Y-59.54
X150.1Y-69.7
T2
X118.796Y-49.2
X121.336Y-49.2
X123.876Y-49.2
X126.416Y-49.2
X127.94Y-97.46
X128.956Y-49.2
X130.48Y-97.46
X131.496Y-49.2
X133.02Y-97.46
X134.036Y-49.2
X135.56Y-97.46
X136.576Y-49.2
X138.1Y-97.46
X139.116Y-49.2
X140.64Y-97.46
X141.656Y-49.2
X143.18Y-97.46
X145.72Y-49.2
X145.72Y-97.46
X148.26Y-49.2
X150.8Y-49.2
X150.8Y-97.46
X153.34Y-49.2
X153.34Y-97.46
X155.88Y-49.2
X155.88Y-97.46
X158.42Y-49.2
X158.42Y-97.46
X160.96Y-49.2
X160.96Y-97.46
X163.5Y-49.2
X163.5Y-97.46
T3
X104.7Y-81.12
X104.7Y-86.2
X104.9Y-53.6
X104.9Y-58.6
X104.9Y-64.8
X104.9Y-69.8
X104.9Y-74.8
X105.34Y-95.0
X110.42Y-95.0
X115.5Y-95.0
X120.58Y-95.0
X160.805Y-78.0
X160.805Y-83.0
X160.805Y-88.0
X161.0Y-65.0
X161.0Y-70.0
T4
X115.24Y-49.2
M30
